<?xml version="1.0" encoding="UTF-8" standalone="no"?>
<!-- Created with Inkscape (http://www.inkscape.org/) -->

<svg
   width="121.66721mm"
   height="115.10316mm"
   viewBox="0 0 121.66721 115.10316"
   version="1.1"
   id="svg5"
   inkscape:version="1.2.2 (b0a8486541, 2022-12-01)"
   sodipodi:docname="Design 2.svg"
   xml:space="preserve"
   xmlns:inkscape="http://www.inkscape.org/namespaces/inkscape"
   xmlns:sodipodi="http://sodipodi.sourceforge.net/DTD/sodipodi-0.dtd"
   xmlns="http://www.w3.org/2000/svg"
   xmlns:svg="http://www.w3.org/2000/svg"><sodipodi:namedview
     id="namedview7"
     pagecolor="#ffffff"
     bordercolor="#666666"
     borderopacity="1.0"
     inkscape:showpageshadow="2"
     inkscape:pageopacity="0.0"
     inkscape:pagecheckerboard="0"
     inkscape:deskcolor="#d1d1d1"
     inkscape:document-units="mm"
     showgrid="false"
     inkscape:zoom="2.1230678"
     inkscape:cx="267.53738"
     inkscape:cy="286.14253"
     inkscape:window-width="1920"
     inkscape:window-height="1020"
     inkscape:window-x="0"
     inkscape:window-y="32"
     inkscape:window-maximized="1"
     inkscape:current-layer="layer1"
     showguides="false" /><defs
     id="defs2" /><g
     inkscape:label="Ebene 1"
     inkscape:groupmode="layer"
     id="layer1"
     transform="translate(-87.881826,-57.771503)"><rect
       style="fill:#f2f2f2;stroke:none;stroke-width:0.499999;stroke-linecap:round;stroke-miterlimit:11.6;stroke-dasharray:none;paint-order:fill markers stroke;stop-color:#000000"
       id="rect6657-8-1"
       width="11.876462"
       height="3.5896959"
       x="145.89114"
       y="114.5885" /><rect
       style="fill:#f2f2f2;stroke:none;stroke-width:0.499999;stroke-linecap:round;stroke-miterlimit:11.6;stroke-dasharray:none;paint-order:fill markers stroke;stop-color:#000000"
       id="rect6657-8-1-0"
       width="20.307131"
       height="3.1966228"
       x="145.94824"
       y="110.98193" /><rect
       style="fill:#f2f2f2;stroke:none;stroke-width:0.499999;stroke-linecap:round;stroke-miterlimit:11.6;stroke-dasharray:none;paint-order:fill markers stroke;stop-color:#000000"
       id="rect6657-8-1-0-6"
       width="14.320228"
       height="3.1966228"
       x="171.68686"
       y="110.98193" /><rect
       style="fill:#f2f2f2;stroke:none;stroke-width:0.499999;stroke-linecap:round;stroke-miterlimit:11.6;stroke-dasharray:none;paint-order:fill markers stroke;stop-color:#000000"
       id="rect6657-8-1-0-1"
       width="18.162441"
       height="3.1966228"
       x="189.76723"
       y="110.98193" /><rect
       style="fill:#f2f2f2;stroke:none;stroke-width:0.5;stroke-linecap:round;stroke-miterlimit:11.6;stroke-dasharray:none;paint-order:fill markers stroke;stop-color:#000000"
       id="rect6657-8-1-0-1-8"
       width="37.468727"
       height="4.6864562"
       x="151.6877"
       y="128.56023" /><rect
       style="fill:#f2f2f2;stroke:none;stroke-width:0.499999;stroke-linecap:round;stroke-miterlimit:11.6;stroke-dasharray:none;paint-order:fill markers stroke;stop-color:#000000"
       id="rect6657-8-1-0-1-9"
       width="19.297941"
       height="5.3499298"
       x="125.94188"
       y="66.661102" /><rect
       style="fill:#f2f2f2;stroke:none;stroke-width:0.499999;stroke-linecap:round;stroke-miterlimit:11.6;stroke-dasharray:none;paint-order:fill markers stroke;stop-color:#000000"
       id="rect6657-8-1-0-1-9-1"
       width="19.297941"
       height="5.3499298"
       x="166.42799"
       y="66.574249" /><rect
       style="fill:#f2f2f2;stroke:none;stroke-width:0.499999;stroke-linecap:round;stroke-miterlimit:11.6;stroke-dasharray:none;paint-order:fill markers stroke;stop-color:#000000"
       id="rect6657-8-1-0-1-9-7"
       width="20.411736"
       height="5.3461213"
       x="188.20102"
       y="66.643341" /><path
       d="m 155.13917,120.30112 0.085,-0.0852 -0.25538,-0.2554 -0.46784,-0.46783 -0.2554,-0.25539 -0.0852,0.0852 -0.17025,0.17026 -1.50071,1.5007 c -0.0784,0.0784 -0.13566,0.17554 -0.16724,0.28176 l -0.26669,0.90705 c -0.0189,0.0633 -0.001,0.13185 0.046,0.17855 0.0475,0.0467 0.11538,0.0641 0.17855,0.046 l 0.90629,-0.26669 c 0.10626,-0.0317 0.20341,-0.0888 0.28176,-0.16725 l 1.50072,-1.5007 z m -1.88568,1.26867 -0.0686,0.17101 c -0.0302,0.0234 -0.064,0.0407 -0.10015,0.052 l -0.58912,0.17328 0.17327,-0.58839 c 0.0109,-0.0369 0.0287,-0.0709 0.052,-0.10014 l 0.17101,-0.0686 v 0.24108 c 0,0.0663 0.0543,0.12055 0.12055,0.12055 h 0.24107 z m 1.52708,-2.86806 -0.10845,0.10926 -0.17024,0.17026 -0.0859,0.0852 0.25539,0.25539 0.46785,0.46783 0.25538,0.2554 0.0852,-0.0852 0.17026,-0.17026 0.10926,-0.10926 c 0.18834,-0.18834 0.18834,-0.49346 0,-0.6818 l -0.29608,-0.29682 c -0.18834,-0.18835 -0.49345,-0.18835 -0.6818,0 z m -0.35711,1.26565 -1.08484,1.08485 c -0.0467,0.0467 -0.12355,0.0467 -0.17026,0 -0.0467,-0.0467 -0.0467,-0.12355 0,-0.17026 l 1.08484,-1.08485 c 0.0467,-0.0467 0.12355,-0.0467 0.17026,0 0.0467,0.0467 0.0467,0.12355 0,0.17026 z"
       id="path3422-6"
       style="stroke-width:0.264583" /><path
       d="m 155.16335,124.39166 0.085,-0.0852 -0.25538,-0.2554 -0.46784,-0.46783 -0.2554,-0.25539 -0.0852,0.0852 -0.17025,0.17026 -1.50071,1.5007 c -0.0784,0.0784 -0.13566,0.17554 -0.16724,0.28176 l -0.26669,0.90705 c -0.0189,0.0633 -0.001,0.13185 0.046,0.17855 0.0475,0.0467 0.11538,0.0641 0.17855,0.046 l 0.90629,-0.26669 c 0.10626,-0.0317 0.20341,-0.0888 0.28176,-0.16725 l 1.50072,-1.5007 z m -1.88568,1.26867 -0.0686,0.17101 c -0.0302,0.0234 -0.064,0.0407 -0.10015,0.052 l -0.58912,0.17328 0.17327,-0.58839 c 0.0109,-0.0369 0.0287,-0.0709 0.052,-0.10014 l 0.17101,-0.0686 v 0.24108 c 0,0.0663 0.0543,0.12055 0.12055,0.12055 h 0.24107 z m 1.52708,-2.86806 -0.10845,0.10926 -0.17024,0.17026 -0.0859,0.0852 0.25539,0.25539 0.46785,0.46783 0.25538,0.2554 0.0852,-0.0852 0.17026,-0.17026 0.10926,-0.10926 c 0.18834,-0.18834 0.18834,-0.49346 0,-0.6818 l -0.29608,-0.29682 c -0.18834,-0.18835 -0.49345,-0.18835 -0.6818,0 z m -0.35711,1.26565 -1.08484,1.08485 c -0.0467,0.0467 -0.12355,0.0467 -0.17026,0 -0.0467,-0.0467 -0.0467,-0.12355 0,-0.17026 l 1.08484,-1.08485 c 0.0467,-0.0467 0.12355,-0.0467 0.17026,0 0.0467,0.0467 0.0467,0.12355 0,0.17026 z"
       id="path3422-6-0"
       style="stroke-width:0.264583" /><path
       d="m 168.84046,67.601112 c 0.0304,-0.0635 0.0962,-0.10319 0.16692,-0.10319 h 0.70189 c 0.0708,0 0.13526,0.0395 0.16694,0.10319 l 0.0434,0.0834 h 0.55965 c 0.10322,0 0.18643,0.0834 0.18643,0.18656 0,0.10319 -0.0832,0.18657 -0.18643,0.18657 h -2.23856 c -0.10322,0 -0.18646,-0.0834 -0.18646,-0.18657 0,-0.10318 0.0832,-0.18656 0.18646,-0.18656 h 0.55964 z m -0.60163,0.643 h 2.23858 v 1.86549 c 0,0.20577 -0.16736,0.37308 -0.37331,0.37308 h -1.4924 c -0.20594,0 -0.3733,-0.16731 -0.3733,-0.37308 z m 0.55966,0.37309 c -0.0511,0 -0.0932,0.0421 -0.0932,0.0933 v 1.30584 c 0,0.0513 0.0434,0.0933 0.0932,0.0933 0.0511,0 0.0932,-0.042 0.0932,-0.0933 v -1.30584 c 0,-0.0513 -0.0434,-0.0933 -0.0932,-0.0933 z m 0.5596,0 c -0.0511,0 -0.0932,0.0421 -0.0932,0.0933 v 1.30584 c 0,0.0513 0.0434,0.0933 0.0932,0.0933 0.0511,0 0.0932,-0.042 0.0932,-0.0933 v -1.30584 c 0,-0.0513 -0.0434,-0.0933 -0.0932,-0.0933 z m 0.55966,0 c -0.0511,0 -0.0932,0.0421 -0.0932,0.0933 v 1.30584 c 0,0.0513 0.0434,0.0933 0.0932,0.0933 0.0511,0 0.0932,-0.042 0.0932,-0.0933 v -1.30584 c 0,-0.0513 -0.0434,-0.0933 -0.0932,-0.0933 z"
       id="path5414-3-9"
       style="stroke-width:0.264583" /><rect
       style="fill:none;stroke:#333333;stroke-width:0.471881;stroke-linecap:round;stroke-miterlimit:11.6;stroke-dasharray:none;paint-order:fill markers stroke;stop-color:#000000"
       id="rect447-0-2"
       width="121.19532"
       height="71.49369"
       x="88.117767"
       y="65.104141" /><rect
       style="fill:#cccccc;stroke:#333333;stroke-width:0.471882;stroke-linecap:round;stroke-miterlimit:11.6;stroke-dasharray:none;paint-order:fill markers stroke;stop-color:#000000"
       id="rect447-6-9-7"
       width="121.19532"
       height="7.3344746"
       x="88.117767"
       y="-65.341919"
       transform="scale(1,-1)" /><text
       xml:space="preserve"
       style="font-size:3.88056px;line-height:1;font-family:FreeSans;-inkscape-font-specification:FreeSans;letter-spacing:0px;word-spacing:0px;stroke-width:0.264583"
       x="89.815163"
       y="62.882725"
       id="text1203-6-2"><tspan
         sodipodi:role="line"
         id="tspan1201-1-2"
         style="font-size:3.88056px;stroke-width:0.264583"
         x="89.815163"
         y="62.882725">TLS identity (DANE TLSA)</tspan></text><text
       xml:space="preserve"
       style="font-size:3.45694px;line-height:1;font-family:FreeSans;-inkscape-font-specification:FreeSans;letter-spacing:0px;word-spacing:0px;stroke-width:0.264583"
       x="90.812408"
       y="70.275063"
       id="text7573"><tspan
         sodipodi:role="line"
         id="tspan7571"
         style="font-style:normal;font-variant:normal;font-weight:normal;font-stretch:normal;font-family:'Fira Code';-inkscape-font-specification:'Fira Code';stroke-width:0.264583"
         x="90.812408"
         y="70.275063">TLS certificate:   Upload             Delete    Replace</tspan><tspan
         sodipodi:role="line"
         style="font-style:normal;font-variant:normal;font-weight:normal;font-stretch:normal;font-family:'Fira Code';-inkscape-font-specification:'Fira Code';stroke-width:0.264583"
         x="90.812408"
         y="73.904846"
         id="tspan7575" /><tspan
         sodipodi:role="line"
         style="font-style:normal;font-variant:normal;font-weight:normal;font-stretch:normal;font-family:'Fira Code';-inkscape-font-specification:'Fira Code';stroke-width:0.264583"
         x="90.812408"
         y="77.534637"
         id="tspan7577">-----BEGIN CERTIFICATE-----</tspan><tspan
         sodipodi:role="line"
         style="font-style:normal;font-variant:normal;font-weight:normal;font-stretch:normal;font-family:'Fira Code';-inkscape-font-specification:'Fira Code';stroke-width:0.264583"
         x="90.812408"
         y="81.164421"
         id="tspan7579">…</tspan><tspan
         sodipodi:role="line"
         style="font-style:normal;font-variant:normal;font-weight:normal;font-stretch:normal;font-family:'Fira Code';-inkscape-font-specification:'Fira Code';stroke-width:0.264583"
         x="90.812408"
         y="84.794212"
         id="tspan7581">-----END CERTIFICATE-----</tspan><tspan
         sodipodi:role="line"
         style="font-style:normal;font-variant:normal;font-weight:normal;font-stretch:normal;font-family:'Fira Code';-inkscape-font-specification:'Fira Code';stroke-width:0.264583"
         x="90.812408"
         y="88.423996"
         id="tspan7583" /><tspan
         sodipodi:role="line"
         style="font-style:normal;font-variant:normal;font-weight:normal;font-stretch:normal;font-family:'Fira Code';-inkscape-font-specification:'Fira Code';stroke-width:0.264583"
         x="90.812408"
         y="92.053787"
         id="tspan7585">Name:                     loremipsum</tspan><tspan
         sodipodi:role="line"
         style="font-style:normal;font-variant:normal;font-weight:normal;font-stretch:normal;font-family:'Fira Code';-inkscape-font-specification:'Fira Code';stroke-width:0.264583"
         x="90.812408"
         y="95.683571"
         id="tspan7587">Applies to:               lorem.example.com</tspan><tspan
         sodipodi:role="line"
         style="font-style:normal;font-variant:normal;font-weight:normal;font-stretch:normal;font-family:'Fira Code';-inkscape-font-specification:'Fira Code';stroke-width:0.264583"
         x="90.812408"
         y="99.313354"
         id="tspan7589">                          ipsum.example.com</tspan><tspan
         sodipodi:role="line"
         style="font-style:normal;font-variant:normal;font-weight:normal;font-stretch:normal;font-family:'Fira Code';-inkscape-font-specification:'Fira Code';stroke-width:0.264583"
         x="90.812408"
         y="102.94315"
         id="tspan7591">Valid from:               2023-04-01</tspan><tspan
         sodipodi:role="line"
         style="font-style:normal;font-variant:normal;font-weight:normal;font-stretch:normal;font-family:'Fira Code';-inkscape-font-specification:'Fira Code';stroke-width:0.264583"
         x="90.812408"
         y="106.57293"
         id="tspan7593">Valid until:              2023-07-01</tspan><tspan
         sodipodi:role="line"
         style="font-style:normal;font-variant:normal;font-weight:normal;font-stretch:normal;font-family:'Fira Code';-inkscape-font-specification:'Fira Code';stroke-width:0.264583"
         x="90.812408"
         y="110.20272"
         id="tspan7595">Automatically renews on:  2023-06-01</tspan><tspan
         sodipodi:role="line"
         style="font-style:normal;font-variant:normal;font-weight:normal;font-stretch:normal;font-family:'Fira Code';-inkscape-font-specification:'Fira Code';stroke-width:0.264583"
         x="90.812408"
         y="113.8325"
         id="tspan7597">DANE TLSA associations:   DANE-EE ⏷   SPKI ⏷     ➖ Remove</tspan><tspan
         sodipodi:role="line"
         style="font-style:normal;font-variant:normal;font-weight:normal;font-stretch:normal;font-family:'Fira Code';-inkscape-font-specification:'Fira Code';stroke-width:0.264583"
         x="90.812408"
         y="117.5302"
         id="tspan7599">                          ➕ Add</tspan><tspan
         sodipodi:role="line"
         style="font-style:normal;font-variant:normal;font-weight:normal;font-stretch:normal;font-family:'Fira Code';-inkscape-font-specification:'Fira Code';stroke-width:0.264583"
         x="90.812408"
         y="121.22791"
         id="tspan8173">Certificate signing request:</tspan><tspan
         sodipodi:role="line"
         style="font-style:normal;font-variant:normal;font-weight:normal;font-stretch:normal;font-family:'Fira Code';-inkscape-font-specification:'Fira Code';stroke-width:0.264583"
         x="90.812408"
         y="124.8577"
         id="tspan8183">CA auth token:</tspan><tspan
         sodipodi:role="line"
         style="font-style:normal;font-variant:normal;font-weight:normal;font-stretch:normal;font-family:'Fira Code';-inkscape-font-specification:'Fira Code';stroke-width:0.264583"
         x="90.812408"
         y="128.48749"
         id="tspan9012" /><tspan
         sodipodi:role="line"
         style="font-style:normal;font-variant:normal;font-weight:bold;font-stretch:normal;font-family:'Fira Code';-inkscape-font-specification:'Fira Code Bold';stroke-width:0.264583"
         x="90.812408"
         y="132.11726"
         id="tspan9014">TLS: <tspan
   style="fill:#008000"
   id="tspan9016">active</tspan>    DANE: <tspan
   style="fill:#008000"
   id="tspan9018">active  </tspan><tspan
   style="font-style:normal;font-variant:normal;font-weight:normal;font-stretch:normal;font-family:'Fira Code';-inkscape-font-specification:'Fira Code'"
   id="tspan9022">View TLSA records</tspan></tspan></text><path
       d="m 160.52138,119.37992 v 1.94637 c 0,0.14195 -0.11469,0.25663 -0.25663,0.25663 -0.14195,0 -0.25663,-0.11468 -0.25663,-0.25663 v -1.94637 l -0.58865,0.58864 c -0.10024,0.10025 -0.26304,0.10025 -0.36328,0 -0.10025,-0.10024 -0.10025,-0.26304 0,-0.36329 l 1.02652,-1.02652 c 0.10024,-0.10024 0.26304,-0.10024 0.36329,0 l 1.02651,1.02652 c 0.10024,0.10025 0.10024,0.26305 0,0.36329 -0.10025,0.10025 -0.26305,0.10025 -0.36329,0 z m -1.7964,1.94637 h 1.02651 c 0,0.28309 0.23016,0.51326 0.51326,0.51326 0.2831,0 0.51326,-0.23017 0.51326,-0.51326 h 1.02651 c 0.2831,0 0.51326,0.23016 0.51326,0.51326 v 0.25663 c 0,0.28309 -0.23016,0.51326 -0.51326,0.51326 h -3.07954 c -0.2831,0 -0.51326,-0.23017 -0.51326,-0.51326 v -0.25663 c 0,-0.2831 0.23016,-0.51326 0.51326,-0.51326 z m 2.95123,0.83404 a 0.19247183,0.19247183 0 1 0 0,-0.38494 0.19247183,0.19247183 0 1 0 0,0.38494 z"
       id="path7633"
       style="stroke-width:0.264583" /><path
       d="m 128.88901,68.114822 v 1.94637 c 0,0.14195 -0.11469,0.25663 -0.25663,0.25663 -0.14195,0 -0.25663,-0.11468 -0.25663,-0.25663 v -1.94637 l -0.58865,0.58864 c -0.10024,0.10025 -0.26304,0.10025 -0.36328,0 -0.10025,-0.10024 -0.10025,-0.26304 0,-0.36329 l 1.02652,-1.02652 c 0.10024,-0.10024 0.26304,-0.10024 0.36329,0 l 1.02651,1.02652 c 0.10024,0.10025 0.10024,0.26305 0,0.36329 -0.10025,0.10025 -0.26305,0.10025 -0.36329,0 z m -1.7964,1.94637 h 1.02651 c 0,0.28309 0.23016,0.51326 0.51326,0.51326 0.2831,0 0.51326,-0.23017 0.51326,-0.51326 h 1.02651 c 0.2831,0 0.51326,0.23016 0.51326,0.51326 v 0.25663 c 0,0.28309 -0.23016,0.51326 -0.51326,0.51326 h -3.07954 c -0.2831,0 -0.51326,-0.23017 -0.51326,-0.51326 v -0.25663 c 0,-0.2831 0.23016,-0.51326 0.51326,-0.51326 z m 2.95123,0.83404 a 0.19247183,0.19247183 0 1 0 0,-0.38494 0.19247183,0.19247183 0 1 0 0,0.38494 z"
       id="path7633-5"
       style="stroke-width:0.264583" /><path
       d="m 189.7031,68.614975 c 0.0509,-0.144183 0.1336,-0.279768 0.25001,-0.395512 0.41336,-0.413368 1.08335,-0.413368 1.49672,0 l 0.1131,0.113759 h -0.33268 c -0.11707,0 -0.21165,0.09458 -0.21165,0.211645 0,0.117066 0.0946,0.211645 0.21165,0.211645 h 0.84327 c 0,0 0,0 0,0 h 0.003 c 0.11706,0 0.21164,-0.09458 0.21164,-0.211645 v -0.846579 c 0,-0.117066 -0.0946,-0.211645 -0.21164,-0.211645 -0.11707,0 -0.21165,0.09458 -0.21165,0.211645 v 0.338632 l -0.11574,-0.116405 c -0.57872,-0.578717 -1.51657,-0.578717 -2.09528,0 -0.16139,0.161379 -0.27779,0.351198 -0.34922,0.554245 -0.039,0.110452 0.0192,0.230825 0.12897,0.269848 0.10979,0.03902 0.23083,-0.01918 0.26985,-0.128972 z m -0.43718,0.573425 c -0.0331,0.0099 -0.0648,0.02778 -0.0906,0.05424 -0.0264,0.02646 -0.0443,0.0582 -0.0536,0.0926 -0.002,0.0079 -0.004,0.01653 -0.005,0.02514 -0.002,0.01124 -0.003,0.02249 -0.003,0.03373 v 0.843934 c 0,0.117066 0.0946,0.211645 0.21164,0.211645 0.11707,0 0.21164,-0.09458 0.21164,-0.211645 v -0.337971 l 0.11641,0.115744 v 0 c 0.57872,0.578055 1.51657,0.578055 2.09463,0 0.16137,-0.161379 0.27844,-0.351198 0.34987,-0.553584 0.039,-0.110452 -0.0192,-0.230825 -0.12898,-0.269847 -0.10978,-0.03902 -0.23082,0.01918 -0.26984,0.128971 -0.0509,0.144183 -0.1336,0.279768 -0.25001,0.395512 -0.41337,0.413369 -1.08335,0.413369 -1.49672,0 l -5.8e-4,-6.44e-4 -0.1131,-0.113097 h 0.33334 c 0.11707,0 0.21164,-0.09458 0.21164,-0.211645 0,-0.117067 -0.0946,-0.211645 -0.21164,-0.211645 h -0.84394 c -0.0106,0 -0.0212,6.43e-4 -0.0317,0.002 -0.0106,0.0013 -0.0205,0.0033 -0.0304,0.0066 z"
       id="path8270"
       style="stroke-width:0.264583" /><rect
       style="fill:none;stroke:#333333;stroke-width:0.471881;stroke-linecap:round;stroke-miterlimit:11.6;stroke-dasharray:none;paint-order:fill markers stroke;stop-color:#000000"
       id="rect447-0-2-3"
       width="121.19532"
       height="24.605795"
       x="88.117767"
       y="148.03293" /><rect
       style="fill:#cccccc;stroke:#333333;stroke-width:0.471882;stroke-linecap:round;stroke-miterlimit:11.6;stroke-dasharray:none;paint-order:fill markers stroke;stop-color:#000000"
       id="rect447-6-9-7-9"
       width="121.19532"
       height="7.3344746"
       x="88.117767"
       y="-148.27071"
       transform="scale(1,-1)" /><text
       xml:space="preserve"
       style="font-size:3.88056px;line-height:1;font-family:FreeSans;-inkscape-font-specification:FreeSans;letter-spacing:0px;word-spacing:0px;stroke-width:0.264583"
       x="89.81517"
       y="145.81151"
       id="text1203-6-2-4"><tspan
         sodipodi:role="line"
         id="tspan1201-1-2-8"
         style="font-size:3.88056px;stroke-width:0.264583"
         x="89.81517"
         y="145.81151">Global DANE TLSA settings</tspan></text><text
       xml:space="preserve"
       style="font-size:4.71522px;line-height:1;font-family:FreeSans;-inkscape-font-specification:FreeSans;letter-spacing:0px;word-spacing:0px;stroke-width:0.264584"
       x="90.77047"
       y="154.20143"
       id="text7573-1"><tspan
         sodipodi:role="line"
         style="font-style:normal;font-variant:normal;font-weight:normal;font-stretch:normal;font-family:'Fira Code';-inkscape-font-specification:'Fira Code';stroke-width:0.264584"
         x="90.77047"
         y="154.20143"
         id="tspan8183-1">Enabled hashing algorithms:</tspan><tspan
         sodipodi:role="line"
         style="font-style:normal;font-variant:normal;font-weight:normal;font-stretch:normal;font-family:'Fira Code';-inkscape-font-specification:'Fira Code';stroke-width:0.264584"
         x="90.77047"
         y="159.1524"
         id="tspan8722" /><tspan
         sodipodi:role="line"
         style="font-style:normal;font-variant:normal;font-weight:normal;font-stretch:normal;font-family:'Fira Code';-inkscape-font-specification:'Fira Code';stroke-width:0.264584"
         x="90.77047"
         y="164.10339"
         id="tspan8724"><tspan
   style="fill:#999999;stroke-width:0.264584"
   id="tspan8728">☑</tspan> SHA2-256</tspan><tspan
         sodipodi:role="line"
         style="font-style:normal;font-variant:normal;font-weight:normal;font-stretch:normal;font-family:'Fira Code';-inkscape-font-specification:'Fira Code';stroke-width:0.264584"
         x="90.77047"
         y="169.05437"
         id="tspan8726">☐ SHA2-512</tspan></text></g></svg>
