<?xml version="1.0" encoding="UTF-8" standalone="no"?>
<!-- Created with Inkscape (http://www.inkscape.org/) -->

<svg
   width="128mm"
   height="197.29164mm"
   viewBox="0 0 128 197.29164"
   version="1.1"
   id="svg5"
   inkscape:version="1.2.2 (b0a8486541, 2022-12-01)"
   sodipodi:docname="Design 1.svg"
   xml:space="preserve"
   xmlns:inkscape="http://www.inkscape.org/namespaces/inkscape"
   xmlns:sodipodi="http://sodipodi.sourceforge.net/DTD/sodipodi-0.dtd"
   xmlns="http://www.w3.org/2000/svg"
   xmlns:svg="http://www.w3.org/2000/svg"><sodipodi:namedview
     id="namedview7"
     pagecolor="#ffffff"
     bordercolor="#666666"
     borderopacity="1.0"
     inkscape:showpageshadow="2"
     inkscape:pageopacity="0.0"
     inkscape:pagecheckerboard="0"
     inkscape:deskcolor="#d1d1d1"
     inkscape:document-units="mm"
     showgrid="false"
     inkscape:zoom="1.1972714"
     inkscape:cx="279.8029"
     inkscape:cy="448.93749"
     inkscape:window-width="1920"
     inkscape:window-height="1020"
     inkscape:window-x="0"
     inkscape:window-y="32"
     inkscape:window-maximized="1"
     inkscape:current-layer="layer1"
     showguides="false" /><defs
     id="defs2" /><g
     inkscape:label="Ebene 1"
     inkscape:groupmode="layer"
     id="layer1"
     transform="translate(-44.134472,-29.617643)"><rect
       style="fill:#f2f2f2;stroke:none;stroke-width:0.499999;stroke-linecap:round;stroke-miterlimit:11.6;stroke-dasharray:none;paint-order:fill markers stroke;stop-color:#000000"
       id="rect6657"
       width="9.5606689"
       height="4.4043875"
       x="157.80553"
       y="187.90532" /><rect
       style="fill:#f2f2f2;stroke:none;stroke-width:0.499999;stroke-linecap:round;stroke-miterlimit:11.6;stroke-dasharray:none;paint-order:fill markers stroke;stop-color:#000000"
       id="rect6657-8"
       width="14.594514"
       height="5.2845721"
       x="149.72511"
       y="111.84856" /><rect
       style="fill:#f2f2f2;stroke:none;stroke-width:0.499999;stroke-linecap:round;stroke-miterlimit:11.6;stroke-dasharray:none;paint-order:fill markers stroke;stop-color:#000000"
       id="rect6657-7"
       width="16.116573"
       height="5.1162658"
       x="48.738049"
       y="159.79333" /><rect
       style="opacity:1;fill:none;stroke:#87aade;stroke-width:1.22422;stroke-linecap:round;stroke-miterlimit:11.6;paint-order:fill markers stroke;stop-color:#000000"
       id="rect234"
       width="126.77578"
       height="94.775772"
       x="44.746582"
       y="30.229753" /><rect
       style="fill:none;stroke:#87aade;stroke-width:1.22422;stroke-linecap:round;stroke-miterlimit:11.6;paint-order:fill markers stroke;stop-color:#000000"
       id="rect234-3"
       width="126.77578"
       height="94.775772"
       x="44.746582"
       y="131.52141" /><text
       xml:space="preserve"
       style="font-size:5.64444px;line-height:1;font-family:FreeSans;-inkscape-font-specification:FreeSans;letter-spacing:0px;word-spacing:0px;stroke-width:0.264583"
       x="47.099316"
       y="37.201015"
       id="text289"><tspan
         sodipodi:role="line"
         id="tspan287"
         style="stroke-width:0.264583"
         x="47.099316"
         y="37.201015">DANE Identity Manager</tspan></text><rect
       style="fill:none;stroke:#333333;stroke-width:0.471881;stroke-linecap:round;stroke-miterlimit:11.6;stroke-dasharray:none;paint-order:fill markers stroke;stop-color:#000000"
       id="rect447"
       width="121.19532"
       height="71.49369"
       x="47.536812"
       y="49.94841" /><rect
       style="fill:#999999;stroke:#333333;stroke-width:0.471882;stroke-linecap:round;stroke-miterlimit:11.6;stroke-dasharray:none;paint-order:fill markers stroke;stop-color:#000000"
       id="rect447-6"
       width="121.19532"
       height="7.3344746"
       x="47.536812"
       y="-50.186192"
       transform="scale(1,-1)" /><g
       id="rect1199-7"><path
         style="color:#000000;fill:#ffffff;stroke-width:0.499999;stroke-linecap:round;stroke-miterlimit:11.6;-inkscape-stroke:none;paint-order:fill markers stroke"
         d="M 48.850819,43.647854 H 84.38171 v 6.538337 H 48.850819 Z"
         id="path1259" /><path
         style="color:#000000;fill:#333333;stroke-linecap:round;stroke-miterlimit:11.6;-inkscape-stroke:none;paint-order:fill markers stroke"
         d="m 48.601562,43.398437 v 0.25 6.78711 h 36.029297 v -7.03711 z m 0.5,0.5 h 35.029297 v 6.03711 H 49.101562 Z"
         id="path1261" /></g><rect
       style="fill:#ffffff;stroke:none;stroke-width:0.499999;stroke-linecap:round;stroke-miterlimit:11.6;stroke-dasharray:none;paint-order:fill markers stroke;stop-color:#000000"
       id="rect1199"
       width="35.029297"
       height="7.2202797"
       x="49.101562"
       y="43.898438" /><text
       xml:space="preserve"
       style="font-size:3.88056px;line-height:1;font-family:FreeSans;-inkscape-font-specification:FreeSans;letter-spacing:0px;word-spacing:0px;stroke-width:0.264583"
       x="49.938316"
       y="48.086426"
       id="text1203"><tspan
         sodipodi:role="line"
         id="tspan1201"
         style="font-size:3.88056px;stroke-width:0.264583"
         x="49.938316"
         y="48.086426">DNS management</tspan></text><g
       id="rect1199-7-5"
       transform="matrix(1.1108522,0,0,1,30.141709,0)"
       style="stroke-width:0.948794"><path
         style="color:#000000;fill:#333333;stroke-width:0.948794;stroke-linecap:round;stroke-miterlimit:11.6;-inkscape-stroke:none;paint-order:fill markers stroke"
         d="m 48.601562,43.398437 v 0.25 6.78711 h 36.029297 v -7.03711 z m 0.5,0.5 h 35.029297 v 6.03711 H 49.101562 Z"
         id="path1261-5" /></g><text
       xml:space="preserve"
       style="font-size:3.88056px;line-height:1;font-family:FreeSans;-inkscape-font-specification:FreeSans;letter-spacing:0px;word-spacing:0px;stroke-width:0.264583"
       x="85.467613"
       y="48.086426"
       id="text1203-2"><tspan
         sodipodi:role="line"
         id="tspan1201-9"
         style="font-size:3.88056px;stroke-width:0.264583"
         x="85.467613"
         y="48.086426">Identity management</tspan></text><text
       xml:space="preserve"
       style="font-size:5.64444px;line-height:1;font-family:FreeSans;-inkscape-font-specification:FreeSans;letter-spacing:0px;word-spacing:0px;stroke-width:0.264583"
       x="47.099319"
       y="138.49266"
       id="text289-2"><tspan
         sodipodi:role="line"
         id="tspan287-7"
         style="stroke-width:0.264583"
         x="47.099319"
         y="138.49266">DANE Identity Manager</tspan></text><rect
       style="fill:none;stroke:#333333;stroke-width:0.471881;stroke-linecap:round;stroke-miterlimit:11.6;stroke-dasharray:none;paint-order:fill markers stroke;stop-color:#000000"
       id="rect447-0"
       width="121.19532"
       height="71.49369"
       x="47.536812"
       y="151.24005" /><rect
       style="fill:#999999;stroke:#333333;stroke-width:0.471882;stroke-linecap:round;stroke-miterlimit:11.6;stroke-dasharray:none;paint-order:fill markers stroke;stop-color:#000000"
       id="rect447-6-9"
       width="121.19532"
       height="7.3344746"
       x="47.536812"
       y="-151.47783"
       transform="scale(1,-1)" /><path
       style="color:#000000;fill:#333333;stroke-linecap:round;stroke-miterlimit:11.6;-inkscape-stroke:none;paint-order:fill markers stroke"
       d="m 48.601564,144.69007 v 0.25 6.78711 h 36.029297 v -7.03711 z m 0.5,0.5 h 35.029297 v 6.03711 H 49.101564 Z"
       id="path1261-0" /><text
       xml:space="preserve"
       style="font-size:3.52778px;line-height:1;font-family:FreeSans;-inkscape-font-specification:FreeSans;letter-spacing:0px;word-spacing:0px;stroke-width:0.264583"
       x="50.067852"
       y="56.76878"
       id="text2305"><tspan
         sodipodi:role="line"
         id="tspan2303"
         style="font-style:normal;font-variant:normal;font-weight:normal;font-stretch:normal;font-size:3.52778px;font-family:'Fira Code';-inkscape-font-specification:'Fira Code';stroke-width:0.264583"
         x="50.067852"
         y="56.76878">Zone: example.com.</tspan><tspan
         sodipodi:role="line"
         style="font-style:normal;font-variant:normal;font-weight:normal;font-stretch:normal;font-size:3.52778px;font-family:'Fira Code';-inkscape-font-specification:'Fira Code';stroke-width:0.264583"
         x="50.067852"
         y="60.47295"
         id="tspan2307" /><tspan
         sodipodi:role="line"
         style="font-style:normal;font-variant:normal;font-weight:bold;font-stretch:normal;font-size:3.52778px;font-family:'Fira Code';-inkscape-font-specification:'Fira Code Bold';stroke-width:0.264583"
         x="50.067852"
         y="64.177116"
         id="tspan2309">Name             TTL   Class  Type  Value     Actions</tspan><tspan
         sodipodi:role="line"
         style="font-style:normal;font-variant:normal;font-weight:normal;font-stretch:normal;font-size:3.52778px;font-family:'Fira Code';-inkscape-font-specification:'Fira Code';stroke-width:0.264583"
         x="50.067852"
         y="67.881287"
         id="tspan2311">lorem            3600  IN     A     192.0.2.1</tspan><tspan
         sodipodi:role="line"
         style="font-style:normal;font-variant:normal;font-weight:normal;font-stretch:normal;font-size:3.52778px;font-family:'Fira Code';-inkscape-font-specification:'Fira Code';stroke-width:0.264583"
         x="50.067852"
         y="71.585457"
         id="tspan2313">ipsum            3600  IN     A     192.0.2.2</tspan><tspan
         sodipodi:role="line"
         style="font-style:normal;font-variant:normal;font-weight:normal;font-stretch:normal;font-size:3.52778px;font-family:'Fira Code';-inkscape-font-specification:'Fira Code';stroke-width:0.264583"
         x="50.067852"
         y="75.289627"
         id="tspan2315">dolor            3600  IN     A     192.0.2.3</tspan><tspan
         sodipodi:role="line"
         style="font-style:normal;font-variant:normal;font-weight:normal;font-stretch:normal;font-size:3.52778px;font-family:'Fira Code';-inkscape-font-specification:'Fira Code';stroke-width:0.264583"
         x="50.067852"
         y="78.993797"
         id="tspan2317">sit              3600  IN     A     192.0.2.4</tspan><tspan
         sodipodi:role="line"
         style="font-style:normal;font-variant:normal;font-weight:normal;font-stretch:normal;font-size:3.52778px;font-family:'Fira Code';-inkscape-font-specification:'Fira Code';stroke-width:0.264583"
         x="50.067852"
         y="82.69796"
         id="tspan2319">amet             3600  IN     A     192.0.2.5</tspan><tspan
         sodipodi:role="line"
         style="font-style:normal;font-variant:normal;font-weight:normal;font-stretch:normal;font-size:3.52778px;font-family:'Fira Code';-inkscape-font-specification:'Fira Code';stroke-width:0.264583"
         x="50.067852"
         y="86.40213"
         id="tspan5794">bar              3600  IN     A     192.0.2.6</tspan><tspan
         sodipodi:role="line"
         style="font-style:normal;font-variant:normal;font-weight:normal;font-stretch:normal;font-size:3.52778px;font-family:'Fira Code';-inkscape-font-specification:'Fira Code';stroke-width:0.264583"
         x="50.067852"
         y="90.1063"
         id="tspan2321">_443._tcp.lorem  3600  IN     TLSA  3 1 1 …</tspan><tspan
         sodipodi:role="line"
         style="font-style:normal;font-variant:normal;font-weight:normal;font-stretch:normal;font-size:3.52778px;font-family:'Fira Code';-inkscape-font-specification:'Fira Code';stroke-width:0.264583"
         x="50.067852"
         y="93.810471"
         id="tspan2323">_443._tcp.ipsum  3600  IN     TLSA  3 1 1 …</tspan><tspan
         sodipodi:role="line"
         style="font-style:normal;font-variant:normal;font-weight:normal;font-stretch:normal;font-size:3.52778px;font-family:'Fira Code';-inkscape-font-specification:'Fira Code';stroke-width:0.264583"
         x="50.067852"
         y="97.514641"
         id="tspan2325">_443._tcp.dolor  3600  IN     TLSA  2 0 1 …</tspan><tspan
         sodipodi:role="line"
         style="font-style:normal;font-variant:normal;font-weight:normal;font-stretch:normal;font-size:3.52778px;font-family:'Fira Code';-inkscape-font-specification:'Fira Code';stroke-width:0.264583"
         x="50.067852"
         y="101.21881"
         id="tspan2327">_443._tcp.sit    3600  IN     TLSA  2 0 1 …</tspan><tspan
         sodipodi:role="line"
         style="font-style:normal;font-variant:normal;font-weight:normal;font-stretch:normal;font-size:3.52778px;font-family:'Fira Code';-inkscape-font-specification:'Fira Code';stroke-width:0.264583"
         x="50.067852"
         y="104.92298"
         id="tspan2329">_443._tcp.amet   3600  IN     TLSA  1 1 1 …</tspan><tspan
         sodipodi:role="line"
         style="font-style:normal;font-variant:normal;font-weight:normal;font-stretch:normal;font-size:3.52778px;font-family:'Fira Code';-inkscape-font-specification:'Fira Code';stroke-width:0.264583"
         x="50.067852"
         y="108.62714"
         id="tspan2331">_443._tcp.amet   3600  IN     TLSA  3 1 1 …</tspan></text><text
       xml:space="preserve"
       style="font-size:2.17452px;line-height:1;font-family:FreeSans;-inkscape-font-specification:FreeSans;letter-spacing:0px;word-spacing:0px;stroke-width:0.264583"
       x="48.445496"
       y="168.52258"
       id="text2305-6"><tspan
         sodipodi:role="line"
         style="font-style:normal;font-variant:normal;font-weight:bold;font-stretch:normal;font-size:2.17452px;font-family:'Fira Code';-inkscape-font-specification:'Fira Code Bold';stroke-width:0.264583"
         x="48.445496"
         y="168.52258"
         id="tspan2331-7">Label       Hostnames           Valid from  Valid until  Type           Status    Actions</tspan><tspan
         sodipodi:role="line"
         style="font-style:normal;font-variant:normal;font-weight:normal;font-stretch:normal;font-size:2.17452px;font-family:'Fira Code';-inkscape-font-specification:'Fira Code';stroke-width:0.264583"
         x="48.445496"
         y="170.80583"
         id="tspan6172">loremipsum  lorem.example.com,  2023-04-01  2023-07-01   DANE-EE SPKI   Deployed</tspan><tspan
         sodipodi:role="line"
         style="font-style:normal;font-variant:normal;font-weight:normal;font-stretch:normal;font-size:2.17452px;font-family:'Fira Code';-inkscape-font-specification:'Fira Code';stroke-width:0.264583"
         x="48.445496"
         y="173.08908"
         id="tspan6174">            ipsum.example.com</tspan><tspan
         sodipodi:role="line"
         style="font-style:normal;font-variant:normal;font-weight:normal;font-stretch:normal;font-size:2.17452px;font-family:'Fira Code';-inkscape-font-specification:'Fira Code';stroke-width:0.264583"
         x="48.445496"
         y="175.37231"
         id="tspan6176">dolorsit    dolor.example.com,  2023-04-01  2024-04-01   DANE-TA Cert   Deployed</tspan><tspan
         sodipodi:role="line"
         style="font-style:normal;font-variant:normal;font-weight:normal;font-stretch:normal;font-size:2.17452px;font-family:'Fira Code';-inkscape-font-specification:'Fira Code';stroke-width:0.264583"
         x="48.445496"
         y="177.65556"
         id="tspan6178">            sit.example.com</tspan><tspan
         sodipodi:role="line"
         style="font-style:normal;font-variant:normal;font-weight:normal;font-stretch:normal;font-size:2.17452px;font-family:'Fira Code';-inkscape-font-specification:'Fira Code';stroke-width:0.264583"
         x="48.445496"
         y="179.93881"
         id="tspan6180">amet        amet.example.com    2023-04-01  2024-04-01   PKIX-EE SPKI,  Deployed</tspan><tspan
         sodipodi:role="line"
         style="font-style:normal;font-variant:normal;font-weight:normal;font-stretch:normal;font-size:2.17452px;font-family:'Fira Code';-inkscape-font-specification:'Fira Code';stroke-width:0.264583"
         x="48.445496"
         y="182.22206"
         id="tspan6182">                                                         DANE-EE SPKI</tspan><tspan
         sodipodi:role="line"
         style="font-style:normal;font-variant:normal;font-weight:normal;font-stretch:normal;font-size:2.17452px;font-family:'Fira Code';-inkscape-font-specification:'Fira Code';stroke-width:0.264583"
         x="48.445496"
         y="184.50531"
         id="tspan6184">foo         foo.example.com     2023-04-01  2023-07-01   (none)         No DANE</tspan><tspan
         sodipodi:role="line"
         style="font-style:normal;font-variant:normal;font-weight:normal;font-stretch:normal;font-size:2.17452px;font-family:'Fira Code';-inkscape-font-specification:'Fira Code';stroke-width:0.264583"
         x="48.445496"
         y="186.78854"
         id="tspan6186">bar         bar.example.com     2023-04-01  2023-07-01                  Revoked</tspan></text><path
       d="m 153.04998,66.447185 0.0625,-0.06257 -0.18769,-0.187698 -0.34383,-0.343836 -0.18771,-0.187697 -0.0626,0.06257 -0.12512,0.125132 -1.10294,1.102931 c -0.0576,0.05759 -0.0997,0.129007 -0.12291,0.207076 l -0.196,0.666632 c -0.0139,0.04651 -9e-4,0.09689 0.0338,0.131221 0.0349,0.03433 0.0848,0.04706 0.13122,0.03378 l 0.66607,-0.196003 c 0.0781,-0.02326 0.1495,-0.06533 0.20708,-0.122917 l 1.10294,-1.102931 z m -1.38586,0.932397 -0.0504,0.125686 c -0.0222,0.01717 -0.047,0.0299 -0.0736,0.0382 l -0.43297,0.127346 0.12734,-0.432424 c 0.008,-0.02713 0.0211,-0.05205 0.0382,-0.07364 l 0.12568,-0.05039 v 0.177178 c 0,0.04872 0.0399,0.08859 0.0886,0.08859 h 0.17717 z m 1.12231,-2.107859 -0.0797,0.08028 -0.12512,0.125132 -0.0631,0.06257 0.1877,0.187698 0.34384,0.343834 0.18769,0.187699 0.0626,-0.06257 0.12513,-0.125133 0.0803,-0.08028 c 0.13842,-0.13842 0.13842,-0.362661 0,-0.501081 l -0.2176,-0.218149 c -0.13842,-0.13842 -0.36266,-0.13842 -0.50108,0 z m -0.26245,0.930182 -0.7973,0.797299 c -0.0343,0.03433 -0.0908,0.03433 -0.12513,0 -0.0343,-0.03433 -0.0343,-0.0908 0,-0.125132 l 0.7973,-0.7973 c 0.0343,-0.03433 0.0908,-0.03433 0.12513,0 0.0343,0.03433 0.0343,0.0908 0,0.125133 z"
       id="path3422"
       style="stroke-width:0.264583" /><path
       d="m 153.04998,103.60817 0.0625,-0.0626 -0.18769,-0.18769 -0.34383,-0.34384 -0.18771,-0.1877 -0.0626,0.0626 -0.12512,0.12514 -1.10294,1.10293 c -0.0576,0.0576 -0.0997,0.129 -0.12291,0.20707 l -0.196,0.66663 c -0.0139,0.0465 -9e-4,0.0969 0.0338,0.13123 0.0349,0.0343 0.0848,0.0471 0.13122,0.0338 l 0.66607,-0.19601 c 0.0781,-0.0233 0.1495,-0.0653 0.20708,-0.12291 l 1.10294,-1.10294 z m -1.38586,0.9324 -0.0504,0.12569 c -0.0222,0.0172 -0.047,0.0299 -0.0736,0.0382 l -0.43297,0.12734 0.12734,-0.43242 c 0.008,-0.0271 0.0211,-0.052 0.0382,-0.0736 l 0.12568,-0.0504 v 0.17718 c 0,0.0487 0.0399,0.0886 0.0886,0.0886 h 0.17717 z m 1.12231,-2.10786 -0.0797,0.0803 -0.12512,0.12513 -0.0631,0.0626 0.1877,0.1877 0.34384,0.34384 0.18769,0.1877 0.0626,-0.0626 0.12513,-0.12514 0.0803,-0.0803 c 0.13842,-0.13842 0.13842,-0.36266 0,-0.50108 l -0.2176,-0.21815 c -0.13842,-0.13842 -0.36266,-0.13842 -0.50108,0 z m -0.26245,0.93018 -0.7973,0.7973 c -0.0343,0.0343 -0.0908,0.0343 -0.12513,0 -0.0343,-0.0343 -0.0343,-0.0908 0,-0.12513 l 0.7973,-0.7973 c 0.0343,-0.0343 0.0908,-0.0343 0.12513,0 0.0343,0.0343 0.0343,0.0908 0,0.12513 z"
       id="path3422-3"
       style="stroke-width:0.264583" /><path
       d="m 153.04998,99.892076 0.0625,-0.06257 -0.18769,-0.187698 -0.34383,-0.343836 -0.18771,-0.187697 -0.0626,0.06257 -0.12512,0.125132 -1.10294,1.102933 c -0.0576,0.0576 -0.0997,0.129 -0.12291,0.20707 l -0.196,0.66664 c -0.0139,0.0465 -9e-4,0.0969 0.0338,0.13122 0.0349,0.0343 0.0848,0.0471 0.13122,0.0338 l 0.66607,-0.19601 c 0.0781,-0.0233 0.1495,-0.0653 0.20708,-0.12291 l 1.10294,-1.10293 z m -1.38586,0.932394 -0.0504,0.12569 c -0.0222,0.0172 -0.047,0.0299 -0.0736,0.0382 l -0.43297,0.12734 0.12734,-0.43242 c 0.008,-0.0271 0.0211,-0.052 0.0382,-0.0736 l 0.12568,-0.0504 v 0.17718 c 0,0.0487 0.0399,0.0886 0.0886,0.0886 h 0.17717 z m 1.12231,-2.107856 -0.0797,0.08028 -0.12512,0.125132 -0.0631,0.06257 0.1877,0.187698 0.34384,0.343834 0.18769,0.187699 0.0626,-0.06257 0.12513,-0.125133 0.0803,-0.08028 c 0.13842,-0.13842 0.13842,-0.362661 0,-0.501081 l -0.2176,-0.218149 c -0.13842,-0.13842 -0.36266,-0.13842 -0.50108,0 z m -0.26245,0.930182 -0.7973,0.797294 c -0.0343,0.0343 -0.0908,0.0343 -0.12513,0 -0.0343,-0.0343 -0.0343,-0.0908 0,-0.12513 l 0.7973,-0.797297 c 0.0343,-0.03433 0.0908,-0.03433 0.12513,0 0.0343,0.03433 0.0343,0.0908 0,0.125133 z"
       id="path3422-3-7"
       style="stroke-width:0.264583" /><path
       d="m 153.04998,96.175977 0.0625,-0.06257 -0.18769,-0.187698 -0.34383,-0.343836 -0.18771,-0.187697 -0.0626,0.06257 -0.12512,0.125132 -1.10294,1.102931 c -0.0576,0.05759 -0.0997,0.129007 -0.12291,0.207076 l -0.196,0.666632 c -0.0139,0.04651 -9e-4,0.09689 0.0338,0.131221 0.0349,0.03433 0.0848,0.04706 0.13122,0.03378 l 0.66607,-0.196003 c 0.0781,-0.02326 0.1495,-0.06533 0.20708,-0.122917 l 1.10294,-1.102931 z m -1.38586,0.932397 -0.0504,0.125686 c -0.0222,0.01717 -0.047,0.0299 -0.0736,0.0382 l -0.43297,0.127346 0.12734,-0.432424 c 0.008,-0.02713 0.0211,-0.05205 0.0382,-0.07364 l 0.12568,-0.05039 v 0.177178 c 0,0.04872 0.0399,0.08859 0.0886,0.08859 h 0.17717 z m 1.12231,-2.107859 -0.0797,0.08028 -0.12512,0.125132 -0.0631,0.06257 0.1877,0.187698 0.34384,0.343834 0.18769,0.187699 0.0626,-0.06257 0.12513,-0.125133 0.0803,-0.08028 c 0.13842,-0.13842 0.13842,-0.362661 0,-0.501081 l -0.2176,-0.218149 c -0.13842,-0.13842 -0.36266,-0.13842 -0.50108,0 z m -0.26245,0.930182 -0.7973,0.797299 c -0.0343,0.03433 -0.0908,0.03433 -0.12513,0 -0.0343,-0.03433 -0.0343,-0.0908 0,-0.125132 l 0.7973,-0.7973 c 0.0343,-0.03433 0.0908,-0.03433 0.12513,0 0.0343,0.03433 0.0343,0.0908 0,0.125133 z"
       id="path3422-3-5"
       style="stroke-width:0.264583" /><path
       d="m 155.45412,76.419391 c 0.0304,-0.06351 0.0962,-0.103186 0.16692,-0.103186 h 0.70189 c 0.0708,0 0.13528,0.03945 0.16694,0.103186 l 0.0434,0.08337 h 0.55965 c 0.10322,0 0.18643,0.08337 0.18643,0.186565 0,0.103186 -0.0832,0.186565 -0.18643,0.186565 h -2.23856 c -0.10322,0 -0.18644,-0.08337 -0.18644,-0.186565 0,-0.103186 0.0832,-0.186565 0.18644,-0.186565 h 0.55964 z m -0.60163,0.643006 h 2.23858 v 1.865483 c 0,0.205772 -0.16736,0.373087 -0.37331,0.373087 h -1.4924 c -0.20594,0 -0.3733,-0.167315 -0.3733,-0.373087 z m 0.55966,0.373088 c -0.0511,0 -0.0932,0.04205 -0.0932,0.09326 v 1.305836 c 0,0.0513 0.0434,0.09326 0.0932,0.09326 0.0511,0 0.0932,-0.04205 0.0932,-0.09326 v -1.305836 c 0,-0.05129 -0.0434,-0.09326 -0.0932,-0.09326 z m 0.5596,0 c -0.0511,0 -0.0932,0.04205 -0.0932,0.09326 v 1.305836 c 0,0.0513 0.0434,0.09326 0.0932,0.09326 0.0511,0 0.0932,-0.04205 0.0932,-0.09326 v -1.305836 c 0,-0.05129 -0.0434,-0.09326 -0.0932,-0.09326 z m 0.55966,0 c -0.0511,0 -0.0932,0.04205 -0.0932,0.09326 v 1.305836 c 0,0.0513 0.0434,0.09326 0.0932,0.09326 0.0511,0 0.0932,-0.04205 0.0932,-0.09326 v -1.305836 c 0,-0.05129 -0.0434,-0.09326 -0.0932,-0.09326 z"
       id="path5414"
       style="stroke-width:0.264583" /><path
       d="m 153.04998,92.459878 0.0625,-0.06257 -0.18769,-0.187698 -0.34383,-0.343836 -0.18771,-0.187697 -0.0626,0.06257 -0.12512,0.125132 -1.10294,1.102931 c -0.0576,0.05759 -0.0997,0.129007 -0.12291,0.207076 l -0.196,0.666632 c -0.0139,0.04651 -9e-4,0.09689 0.0338,0.131221 0.0349,0.03433 0.0848,0.04706 0.13122,0.03378 l 0.66607,-0.196003 c 0.0781,-0.02326 0.1495,-0.06533 0.20708,-0.122917 l 1.10294,-1.102931 z m -1.38586,0.932397 -0.0504,0.125686 c -0.0222,0.01717 -0.047,0.0299 -0.0736,0.0382 l -0.43297,0.127346 0.12734,-0.432424 c 0.008,-0.02713 0.0211,-0.05205 0.0382,-0.07364 l 0.12568,-0.05039 v 0.177178 c 0,0.04872 0.0399,0.08859 0.0886,0.08859 h 0.17717 z m 1.12231,-2.107859 -0.0797,0.08028 -0.12512,0.125132 -0.0631,0.06257 0.1877,0.187698 0.34384,0.343834 0.18769,0.187699 0.0626,-0.06257 0.12513,-0.125133 0.0803,-0.08028 c 0.13842,-0.13842 0.13842,-0.362661 0,-0.501081 l -0.2176,-0.218149 c -0.13842,-0.13842 -0.36266,-0.13842 -0.50108,0 z m -0.26245,0.930182 -0.7973,0.797299 c -0.0343,0.03433 -0.0908,0.03433 -0.12513,0 -0.0343,-0.03433 -0.0343,-0.0908 0,-0.125132 l 0.7973,-0.7973 c 0.0343,-0.03433 0.0908,-0.03433 0.12513,0 0.0343,0.03433 0.0343,0.0908 0,0.125133 z"
       id="path3422-3-9"
       style="stroke-width:0.264583" /><path
       d="m 155.45412,72.703292 c 0.0304,-0.06351 0.0962,-0.103186 0.16692,-0.103186 h 0.70189 c 0.0708,0 0.13528,0.03945 0.16694,0.103186 l 0.0434,0.08337 h 0.55965 c 0.10322,0 0.18643,0.08337 0.18643,0.186565 0,0.103186 -0.0832,0.186565 -0.18643,0.186565 h -2.23856 c -0.10322,0 -0.18644,-0.08337 -0.18644,-0.186565 0,-0.103186 0.0832,-0.186565 0.18644,-0.186565 h 0.55964 z m -0.60163,0.643006 h 2.23858 v 1.865483 c 0,0.205772 -0.16736,0.373087 -0.37331,0.373087 h -1.4924 c -0.20594,0 -0.3733,-0.167315 -0.3733,-0.373087 z m 0.55966,0.373088 c -0.0511,0 -0.0932,0.04205 -0.0932,0.09326 v 1.305836 c 0,0.0513 0.0434,0.09326 0.0932,0.09326 0.0511,0 0.0932,-0.04205 0.0932,-0.09326 v -1.305836 c 0,-0.05129 -0.0434,-0.09326 -0.0932,-0.09326 z m 0.5596,0 c -0.0511,0 -0.0932,0.04205 -0.0932,0.09326 v 1.305836 c 0,0.0513 0.0434,0.09326 0.0932,0.09326 0.0511,0 0.0932,-0.04205 0.0932,-0.09326 v -1.305836 c 0,-0.05129 -0.0434,-0.09326 -0.0932,-0.09326 z m 0.55966,0 c -0.0511,0 -0.0932,0.04205 -0.0932,0.09326 v 1.305836 c 0,0.0513 0.0434,0.09326 0.0932,0.09326 0.0511,0 0.0932,-0.04205 0.0932,-0.09326 v -1.305836 c 0,-0.05129 -0.0434,-0.09326 -0.0932,-0.09326 z"
       id="path5414-2"
       style="stroke-width:0.264583" /><path
       d="m 153.04998,88.743779 0.0625,-0.06257 -0.18769,-0.187698 -0.34383,-0.343836 -0.18771,-0.187697 -0.0626,0.06257 -0.12512,0.125132 -1.10294,1.102931 c -0.0576,0.05759 -0.0997,0.129007 -0.12291,0.207076 l -0.196,0.666632 c -0.0139,0.04651 -9e-4,0.09689 0.0338,0.131221 0.0349,0.03433 0.0848,0.04706 0.13122,0.03378 l 0.66607,-0.196003 c 0.0781,-0.02326 0.1495,-0.06533 0.20708,-0.122917 l 1.10294,-1.102931 z m -1.38586,0.932397 -0.0504,0.125686 c -0.0222,0.01717 -0.047,0.0299 -0.0736,0.0382 l -0.43297,0.127346 0.12734,-0.432424 c 0.008,-0.02713 0.0211,-0.05205 0.0382,-0.07364 l 0.12568,-0.05039 v 0.177178 c 0,0.04872 0.0399,0.08859 0.0886,0.08859 h 0.17717 z m 1.12231,-2.107859 -0.0797,0.08028 -0.12512,0.125132 -0.0631,0.06257 0.1877,0.187698 0.34384,0.343834 0.18769,0.187699 0.0626,-0.06257 0.12513,-0.125133 0.0803,-0.08028 c 0.13842,-0.13842 0.13842,-0.362661 0,-0.501081 l -0.2176,-0.218149 c -0.13842,-0.13842 -0.36266,-0.13842 -0.50108,0 z m -0.26245,0.930182 -0.7973,0.797299 c -0.0343,0.03433 -0.0908,0.03433 -0.12513,0 -0.0343,-0.03433 -0.0343,-0.0908 0,-0.125132 l 0.7973,-0.7973 c 0.0343,-0.03433 0.0908,-0.03433 0.12513,0 0.0343,0.03433 0.0343,0.0908 0,0.125133 z"
       id="path3422-3-2"
       style="stroke-width:0.264583" /><path
       d="m 155.45412,68.987193 c 0.0304,-0.06351 0.0962,-0.103186 0.16692,-0.103186 h 0.70189 c 0.0708,0 0.13528,0.03945 0.16694,0.103186 l 0.0434,0.08337 h 0.55965 c 0.10322,0 0.18643,0.08337 0.18643,0.186565 0,0.103186 -0.0832,0.186565 -0.18643,0.186565 h -2.23856 c -0.10322,0 -0.18644,-0.08337 -0.18644,-0.186565 0,-0.103186 0.0832,-0.186565 0.18644,-0.186565 h 0.55964 z m -0.60163,0.643006 h 2.23858 v 1.865483 c 0,0.205772 -0.16736,0.373087 -0.37331,0.373087 h -1.4924 c -0.20594,0 -0.3733,-0.167315 -0.3733,-0.373087 z m 0.55966,0.373088 c -0.0511,0 -0.0932,0.04205 -0.0932,0.09326 v 1.305836 c 0,0.0513 0.0434,0.09326 0.0932,0.09326 0.0511,0 0.0932,-0.04205 0.0932,-0.09326 v -1.305836 c 0,-0.05129 -0.0434,-0.09326 -0.0932,-0.09326 z m 0.5596,0 c -0.0511,0 -0.0932,0.04205 -0.0932,0.09326 v 1.305836 c 0,0.0513 0.0434,0.09326 0.0932,0.09326 0.0511,0 0.0932,-0.04205 0.0932,-0.09326 v -1.305836 c 0,-0.05129 -0.0434,-0.09326 -0.0932,-0.09326 z m 0.55966,0 c -0.0511,0 -0.0932,0.04205 -0.0932,0.09326 v 1.305836 c 0,0.0513 0.0434,0.09326 0.0932,0.09326 0.0511,0 0.0932,-0.04205 0.0932,-0.09326 v -1.305836 c 0,-0.05129 -0.0434,-0.09326 -0.0932,-0.09326 z"
       id="path5414-9"
       style="stroke-width:0.264583" /><path
       d="m 153.04998,85.02768 0.0625,-0.06257 -0.18769,-0.187698 -0.34383,-0.343836 -0.18771,-0.187697 -0.0626,0.06257 -0.12512,0.125132 -1.10294,1.102931 c -0.0576,0.05759 -0.0997,0.129007 -0.12291,0.207076 l -0.196,0.666632 c -0.0139,0.04651 -9e-4,0.09689 0.0338,0.131221 0.0349,0.03433 0.0848,0.04706 0.13122,0.03378 l 0.66607,-0.196003 c 0.0781,-0.02326 0.1495,-0.06533 0.20708,-0.122917 l 1.10294,-1.102931 z m -1.38586,0.932397 -0.0504,0.125686 c -0.0222,0.01717 -0.047,0.0299 -0.0736,0.0382 l -0.43297,0.127346 0.12734,-0.432424 c 0.008,-0.02713 0.0211,-0.05205 0.0382,-0.07364 l 0.12568,-0.05039 v 0.177178 c 0,0.04872 0.0399,0.08859 0.0886,0.08859 h 0.17717 z m 1.12231,-2.107859 -0.0797,0.08028 -0.12512,0.125132 -0.0631,0.06257 0.1877,0.187698 0.34384,0.343834 0.18769,0.187699 0.0626,-0.06257 0.12513,-0.125133 0.0803,-0.08028 c 0.13842,-0.13842 0.13842,-0.362661 0,-0.501081 l -0.2176,-0.218149 c -0.13842,-0.13842 -0.36266,-0.13842 -0.50108,0 z m -0.26245,0.930182 -0.7973,0.797299 c -0.0343,0.03433 -0.0908,0.03433 -0.12513,0 -0.0343,-0.03433 -0.0343,-0.0908 0,-0.125132 l 0.7973,-0.7973 c 0.0343,-0.03433 0.0908,-0.03433 0.12513,0 0.0343,0.03433 0.0343,0.0908 0,0.125133 z"
       id="path3422-3-28"
       style="stroke-width:0.264583" /><path
       d="m 155.45413,65.271094 c 0.0304,-0.06351 0.0962,-0.103186 0.16692,-0.103186 h 0.70189 c 0.0708,0 0.13526,0.03945 0.16694,0.103186 l 0.0434,0.08337 h 0.55965 c 0.10322,0 0.18643,0.08337 0.18643,0.186565 0,0.103186 -0.0832,0.186565 -0.18643,0.186565 h -2.23856 c -0.10322,0 -0.18646,-0.08337 -0.18646,-0.186565 0,-0.103186 0.0832,-0.186565 0.18646,-0.186565 h 0.55964 z M 154.8525,65.9141 h 2.23858 v 1.865483 c 0,0.205772 -0.16736,0.373087 -0.37331,0.373087 h -1.4924 c -0.20594,0 -0.3733,-0.167315 -0.3733,-0.373087 z m 0.55966,0.373088 c -0.0511,0 -0.0932,0.04205 -0.0932,0.09326 v 1.305836 c 0,0.0513 0.0434,0.09326 0.0932,0.09326 0.0511,0 0.0932,-0.04205 0.0932,-0.09326 v -1.305836 c 0,-0.05129 -0.0434,-0.09326 -0.0932,-0.09326 z m 0.5596,0 c -0.0511,0 -0.0932,0.04205 -0.0932,0.09326 v 1.305836 c 0,0.0513 0.0434,0.09326 0.0932,0.09326 0.0511,0 0.0932,-0.04205 0.0932,-0.09326 v -1.305836 c 0,-0.05129 -0.0434,-0.09326 -0.0932,-0.09326 z m 0.55966,0 c -0.0511,0 -0.0932,0.04205 -0.0932,0.09326 v 1.305836 c 0,0.0513 0.0434,0.09326 0.0932,0.09326 0.0511,0 0.0932,-0.04205 0.0932,-0.09326 v -1.305836 c 0,-0.05129 -0.0434,-0.09326 -0.0932,-0.09326 z"
       id="path5414-3"
       style="stroke-width:0.264583" /><path
       d="m 153.04998,81.311581 0.0625,-0.06257 -0.18769,-0.187698 -0.34383,-0.343836 -0.18771,-0.187697 -0.0626,0.06257 -0.12512,0.125132 -1.10294,1.102931 c -0.0576,0.05759 -0.0997,0.129007 -0.12291,0.207076 l -0.196,0.666632 c -0.0139,0.04651 -9e-4,0.09689 0.0338,0.131221 0.0349,0.03433 0.0848,0.04706 0.13122,0.03378 l 0.66607,-0.196003 c 0.0781,-0.02326 0.1495,-0.06533 0.20708,-0.122917 l 1.10294,-1.102931 z m -1.38586,0.932397 -0.0504,0.125686 c -0.0222,0.01717 -0.047,0.0299 -0.0736,0.0382 l -0.43297,0.127346 0.12734,-0.432424 c 0.008,-0.02713 0.0211,-0.05205 0.0382,-0.07364 l 0.12568,-0.05039 v 0.177178 c 0,0.04872 0.0399,0.08859 0.0886,0.08859 h 0.17717 z m 1.12231,-2.107859 -0.0797,0.08028 -0.12512,0.125132 -0.0631,0.06257 0.1877,0.187698 0.34384,0.343834 0.18769,0.187699 0.0626,-0.06257 0.12513,-0.125133 0.0803,-0.08028 c 0.13842,-0.13842 0.13842,-0.362661 0,-0.501081 l -0.2176,-0.218149 c -0.13842,-0.13842 -0.36266,-0.13842 -0.50108,0 z m -0.26245,0.930182 -0.7973,0.797299 c -0.0343,0.03433 -0.0908,0.03433 -0.12513,0 -0.0343,-0.03433 -0.0343,-0.0908 0,-0.125132 l 0.7973,-0.7973 c 0.0343,-0.03433 0.0908,-0.03433 0.12513,0 0.0343,0.03433 0.0343,0.0908 0,0.125133 z"
       id="path3422-3-97"
       style="stroke-width:0.264583" /><path
       d="m 155.45412,80.13549 c 0.0304,-0.06351 0.0962,-0.103186 0.16692,-0.103186 h 0.70189 c 0.0708,0 0.13528,0.03945 0.16694,0.103186 l 0.0434,0.08337 h 0.55965 c 0.10322,0 0.18643,0.08337 0.18643,0.186565 0,0.103186 -0.0832,0.186565 -0.18643,0.186565 h -2.23856 c -0.10322,0 -0.18644,-0.08337 -0.18644,-0.186565 0,-0.103186 0.0832,-0.186565 0.18644,-0.186565 h 0.55964 z m -0.60163,0.643006 h 2.23858 v 1.865483 c 0,0.205772 -0.16736,0.373087 -0.37331,0.373087 h -1.4924 c -0.20594,0 -0.3733,-0.167315 -0.3733,-0.373087 z m 0.55966,0.373088 c -0.0511,0 -0.0932,0.04205 -0.0932,0.09326 v 1.305836 c 0,0.0513 0.0434,0.09326 0.0932,0.09326 0.0511,0 0.0932,-0.04205 0.0932,-0.09326 v -1.305836 c 0,-0.05129 -0.0434,-0.09326 -0.0932,-0.09326 z m 0.5596,0 c -0.0511,0 -0.0932,0.04205 -0.0932,0.09326 v 1.305836 c 0,0.0513 0.0434,0.09326 0.0932,0.09326 0.0511,0 0.0932,-0.04205 0.0932,-0.09326 v -1.305836 c 0,-0.05129 -0.0434,-0.09326 -0.0932,-0.09326 z m 0.55966,0 c -0.0511,0 -0.0932,0.04205 -0.0932,0.09326 v 1.305836 c 0,0.0513 0.0434,0.09326 0.0932,0.09326 0.0511,0 0.0932,-0.04205 0.0932,-0.09326 v -1.305836 c 0,-0.05129 -0.0434,-0.09326 -0.0932,-0.09326 z"
       id="path5414-1"
       style="stroke-width:0.264583" /><path
       d="m 153.04998,77.595482 0.0625,-0.06257 -0.18769,-0.187698 -0.34383,-0.343836 -0.18771,-0.187697 -0.0626,0.06257 -0.12512,0.125132 -1.10294,1.102931 c -0.0576,0.05759 -0.0997,0.129007 -0.12291,0.207076 l -0.196,0.666632 c -0.0139,0.04651 -9e-4,0.09689 0.0338,0.131221 0.0349,0.03433 0.0848,0.04706 0.13122,0.03378 l 0.66607,-0.196003 c 0.0781,-0.02326 0.1495,-0.06533 0.20708,-0.122917 l 1.10294,-1.102931 z m -1.38586,0.932397 -0.0504,0.125686 c -0.0222,0.01717 -0.047,0.0299 -0.0736,0.0382 l -0.43297,0.127346 0.12734,-0.432424 c 0.008,-0.02713 0.0211,-0.05205 0.0382,-0.07364 l 0.12568,-0.05039 v 0.177178 c 0,0.04872 0.0399,0.08859 0.0886,0.08859 h 0.17717 z m 1.12231,-2.107859 -0.0797,0.08028 -0.12512,0.125132 -0.0631,0.06257 0.1877,0.187698 0.34384,0.343834 0.18769,0.187699 0.0626,-0.06257 0.12513,-0.125133 0.0803,-0.08028 c 0.13842,-0.13842 0.13842,-0.362661 0,-0.501081 l -0.2176,-0.218149 c -0.13842,-0.13842 -0.36266,-0.13842 -0.50108,0 z m -0.26245,0.930182 -0.7973,0.797299 c -0.0343,0.03433 -0.0908,0.03433 -0.12513,0 -0.0343,-0.03433 -0.0343,-0.0908 0,-0.125132 l 0.7973,-0.7973 c 0.0343,-0.03433 0.0908,-0.03433 0.12513,0 0.0343,0.03433 0.0343,0.0908 0,0.125133 z"
       id="path3422-3-3"
       style="stroke-width:0.264583" /><path
       d="m 155.45412,83.851589 c 0.0304,-0.06351 0.0962,-0.103186 0.16692,-0.103186 h 0.70189 c 0.0708,0 0.13528,0.03945 0.16694,0.103186 l 0.0434,0.08337 h 0.55965 c 0.10322,0 0.18643,0.08337 0.18643,0.186565 0,0.103186 -0.0832,0.186565 -0.18643,0.186565 h -2.23856 c -0.10322,0 -0.18644,-0.08337 -0.18644,-0.186565 0,-0.103186 0.0832,-0.186565 0.18644,-0.186565 h 0.55964 z m -0.60163,0.643006 h 2.23858 v 1.865483 c 0,0.205772 -0.16736,0.373087 -0.37331,0.373087 h -1.4924 c -0.20594,0 -0.3733,-0.167315 -0.3733,-0.373087 z m 0.55966,0.373088 c -0.0511,0 -0.0932,0.04205 -0.0932,0.09326 v 1.305836 c 0,0.0513 0.0434,0.09326 0.0932,0.09326 0.0511,0 0.0932,-0.04205 0.0932,-0.09326 v -1.305836 c 0,-0.05129 -0.0434,-0.09326 -0.0932,-0.09326 z m 0.5596,0 c -0.0511,0 -0.0932,0.04205 -0.0932,0.09326 v 1.305836 c 0,0.0513 0.0434,0.09326 0.0932,0.09326 0.0511,0 0.0932,-0.04205 0.0932,-0.09326 v -1.305836 c 0,-0.05129 -0.0434,-0.09326 -0.0932,-0.09326 z m 0.55966,0 c -0.0511,0 -0.0932,0.04205 -0.0932,0.09326 v 1.305836 c 0,0.0513 0.0434,0.09326 0.0932,0.09326 0.0511,0 0.0932,-0.04205 0.0932,-0.09326 v -1.305836 c 0,-0.05129 -0.0434,-0.09326 -0.0932,-0.09326 z"
       id="path5414-94"
       style="stroke-width:0.264583" /><path
       d="m 153.04998,73.879383 0.0625,-0.06257 -0.18769,-0.187698 -0.34383,-0.343836 -0.18771,-0.187697 -0.0626,0.06257 -0.12512,0.125132 -1.10294,1.102931 c -0.0576,0.05759 -0.0997,0.129007 -0.12291,0.207076 l -0.196,0.666632 c -0.0139,0.04651 -9e-4,0.09689 0.0338,0.131221 0.0349,0.03433 0.0848,0.04706 0.13122,0.03378 l 0.66607,-0.196003 c 0.0781,-0.02326 0.1495,-0.06533 0.20708,-0.122917 l 1.10294,-1.102931 z m -1.38586,0.932397 -0.0504,0.125686 c -0.0222,0.01717 -0.047,0.0299 -0.0736,0.0382 l -0.43297,0.127346 0.12734,-0.432424 c 0.008,-0.02713 0.0211,-0.05205 0.0382,-0.07364 l 0.12568,-0.05039 v 0.177178 c 0,0.04872 0.0399,0.08859 0.0886,0.08859 h 0.17717 z m 1.12231,-2.107859 -0.0797,0.08028 -0.12512,0.125132 -0.0631,0.06257 0.1877,0.187698 0.34384,0.343834 0.18769,0.187699 0.0626,-0.06257 0.12513,-0.125133 0.0803,-0.08028 c 0.13842,-0.13842 0.13842,-0.362661 0,-0.501081 l -0.2176,-0.218149 c -0.13842,-0.13842 -0.36266,-0.13842 -0.50108,0 z m -0.26245,0.930182 -0.7973,0.797299 c -0.0343,0.03433 -0.0908,0.03433 -0.12513,0 -0.0343,-0.03433 -0.0343,-0.0908 0,-0.125132 l 0.7973,-0.7973 c 0.0343,-0.03433 0.0908,-0.03433 0.12513,0 0.0343,0.03433 0.0343,0.0908 0,0.125133 z"
       id="path3422-3-6"
       style="stroke-width:0.264583" /><path
       d="m 155.45412,87.567688 c 0.0304,-0.06351 0.0962,-0.103186 0.16692,-0.103186 h 0.70189 c 0.0708,0 0.13528,0.03945 0.16694,0.103186 l 0.0434,0.08337 h 0.55965 c 0.10322,0 0.18643,0.08337 0.18643,0.186565 0,0.103186 -0.0832,0.186565 -0.18643,0.186565 h -2.23856 c -0.10322,0 -0.18644,-0.08337 -0.18644,-0.186565 0,-0.103186 0.0832,-0.186565 0.18644,-0.186565 h 0.55964 z m -0.60163,0.643006 h 2.23858 v 1.865483 c 0,0.205772 -0.16736,0.373087 -0.37331,0.373087 h -1.4924 c -0.20594,0 -0.3733,-0.167315 -0.3733,-0.373087 z m 0.55966,0.373088 c -0.0511,0 -0.0932,0.04205 -0.0932,0.09326 v 1.305836 c 0,0.0513 0.0434,0.09326 0.0932,0.09326 0.0511,0 0.0932,-0.04205 0.0932,-0.09326 v -1.305836 c 0,-0.05129 -0.0434,-0.09326 -0.0932,-0.09326 z m 0.5596,0 c -0.0511,0 -0.0932,0.04205 -0.0932,0.09326 v 1.305836 c 0,0.0513 0.0434,0.09326 0.0932,0.09326 0.0511,0 0.0932,-0.04205 0.0932,-0.09326 v -1.305836 c 0,-0.05129 -0.0434,-0.09326 -0.0932,-0.09326 z m 0.55966,0 c -0.0511,0 -0.0932,0.04205 -0.0932,0.09326 v 1.305836 c 0,0.0513 0.0434,0.09326 0.0932,0.09326 0.0511,0 0.0932,-0.04205 0.0932,-0.09326 v -1.305836 c 0,-0.05129 -0.0434,-0.09326 -0.0932,-0.09326 z"
       id="path5414-7"
       style="stroke-width:0.264583" /><path
       d="m 153.04998,70.163284 0.0625,-0.06257 -0.18769,-0.187698 -0.34383,-0.343836 -0.18771,-0.187697 -0.0626,0.06257 -0.12512,0.125132 -1.10294,1.102931 c -0.0576,0.05759 -0.0997,0.129007 -0.12291,0.207076 l -0.196,0.666632 c -0.0139,0.04651 -9e-4,0.09689 0.0338,0.131221 0.0349,0.03433 0.0848,0.04706 0.13122,0.03378 l 0.66607,-0.196003 c 0.0781,-0.02326 0.1495,-0.06533 0.20708,-0.122917 l 1.10294,-1.102931 z m -1.38586,0.932397 -0.0504,0.125686 c -0.0222,0.01717 -0.047,0.0299 -0.0736,0.0382 l -0.43297,0.127346 0.12734,-0.432424 c 0.008,-0.02713 0.0211,-0.05205 0.0382,-0.07364 l 0.12568,-0.05039 v 0.177178 c 0,0.04872 0.0399,0.08859 0.0886,0.08859 h 0.17717 z m 1.12231,-2.107859 -0.0797,0.08028 -0.12512,0.125132 -0.0631,0.06257 0.1877,0.187698 0.34384,0.343834 0.18769,0.187699 0.0626,-0.06257 0.12513,-0.125133 0.0803,-0.08028 c 0.13842,-0.13842 0.13842,-0.362661 0,-0.501081 l -0.2176,-0.218149 c -0.13842,-0.13842 -0.36266,-0.13842 -0.50108,0 z m -0.26245,0.930182 -0.7973,0.797299 c -0.0343,0.03433 -0.0908,0.03433 -0.12513,0 -0.0343,-0.03433 -0.0343,-0.0908 0,-0.125132 l 0.7973,-0.7973 c 0.0343,-0.03433 0.0908,-0.03433 0.12513,0 0.0343,0.03433 0.0343,0.0908 0,0.125133 z"
       id="path3422-3-1"
       style="stroke-width:0.264583" /><path
       d="m 155.45412,91.283787 c 0.0304,-0.06351 0.0962,-0.103186 0.16692,-0.103186 h 0.70189 c 0.0708,0 0.13528,0.03945 0.16694,0.103186 l 0.0434,0.08337 h 0.55965 c 0.10322,0 0.18643,0.08337 0.18643,0.186565 0,0.103186 -0.0832,0.186565 -0.18643,0.186565 h -2.23856 c -0.10322,0 -0.18644,-0.08337 -0.18644,-0.186565 0,-0.103186 0.0832,-0.186565 0.18644,-0.186565 h 0.55964 z m -0.60163,0.643006 h 2.23858 v 1.865483 c 0,0.205772 -0.16736,0.373087 -0.37331,0.373087 h -1.4924 c -0.20594,0 -0.3733,-0.167315 -0.3733,-0.373087 z m 0.55966,0.373088 c -0.0511,0 -0.0932,0.04205 -0.0932,0.09326 v 1.305836 c 0,0.0513 0.0434,0.09326 0.0932,0.09326 0.0511,0 0.0932,-0.04205 0.0932,-0.09326 v -1.305836 c 0,-0.05129 -0.0434,-0.09326 -0.0932,-0.09326 z m 0.5596,0 c -0.0511,0 -0.0932,0.04205 -0.0932,0.09326 v 1.305836 c 0,0.0513 0.0434,0.09326 0.0932,0.09326 0.0511,0 0.0932,-0.04205 0.0932,-0.09326 v -1.305836 c 0,-0.05129 -0.0434,-0.09326 -0.0932,-0.09326 z m 0.55966,0 c -0.0511,0 -0.0932,0.04205 -0.0932,0.09326 v 1.305836 c 0,0.0513 0.0434,0.09326 0.0932,0.09326 0.0511,0 0.0932,-0.04205 0.0932,-0.09326 v -1.305836 c 0,-0.05129 -0.0434,-0.09326 -0.0932,-0.09326 z"
       id="path5414-8"
       style="stroke-width:0.264583" /><path
       d="m 155.45412,94.999886 c 0.0304,-0.06351 0.0962,-0.103186 0.16692,-0.103186 h 0.70189 c 0.0708,0 0.13528,0.03945 0.16694,0.103186 l 0.0434,0.08337 h 0.55965 c 0.10322,0 0.18643,0.08337 0.18643,0.186565 0,0.103186 -0.0832,0.186565 -0.18643,0.186565 h -2.23856 c -0.10322,0 -0.18644,-0.08337 -0.18644,-0.186565 0,-0.103186 0.0832,-0.186565 0.18644,-0.186565 h 0.55964 z m -0.60163,0.643006 h 2.23858 v 1.865483 c 0,0.205772 -0.16736,0.373087 -0.37331,0.373087 h -1.4924 c -0.20594,0 -0.3733,-0.167315 -0.3733,-0.373087 z m 0.55966,0.373088 c -0.0511,0 -0.0932,0.04205 -0.0932,0.09326 v 1.305836 c 0,0.0513 0.0434,0.09326 0.0932,0.09326 0.0511,0 0.0932,-0.04205 0.0932,-0.09326 V 96.10924 c 0,-0.05129 -0.0434,-0.09326 -0.0932,-0.09326 z m 0.5596,0 c -0.0511,0 -0.0932,0.04205 -0.0932,0.09326 v 1.305836 c 0,0.0513 0.0434,0.09326 0.0932,0.09326 0.0511,0 0.0932,-0.04205 0.0932,-0.09326 V 96.10924 c 0,-0.05129 -0.0434,-0.09326 -0.0932,-0.09326 z m 0.55966,0 c -0.0511,0 -0.0932,0.04205 -0.0932,0.09326 v 1.305836 c 0,0.0513 0.0434,0.09326 0.0932,0.09326 0.0511,0 0.0932,-0.04205 0.0932,-0.09326 V 96.10924 c 0,-0.05129 -0.0434,-0.09326 -0.0932,-0.09326 z"
       id="path5414-4"
       style="stroke-width:0.264583" /><path
       d="m 155.45412,98.715985 c 0.0304,-0.06351 0.0962,-0.103186 0.16692,-0.103186 h 0.70189 c 0.0708,0 0.13528,0.03945 0.16694,0.103186 l 0.0434,0.08337 h 0.55965 c 0.10322,0 0.18643,0.08337 0.18643,0.186565 0,0.103186 -0.0832,0.186565 -0.18643,0.186565 h -2.23856 c -0.10322,0 -0.18644,-0.08337 -0.18644,-0.186565 0,-0.103186 0.0832,-0.186565 0.18644,-0.186565 h 0.55964 z m -0.60163,0.643006 h 2.23858 v 1.865479 c 0,0.20578 -0.16736,0.37309 -0.37331,0.37309 h -1.4924 c -0.20594,0 -0.3733,-0.16731 -0.3733,-0.37309 z m 0.55966,0.373088 c -0.0511,0 -0.0932,0.04205 -0.0932,0.09326 v 1.305831 c 0,0.0513 0.0434,0.0933 0.0932,0.0933 0.0511,0 0.0932,-0.0421 0.0932,-0.0933 v -1.305831 c 0,-0.05129 -0.0434,-0.09326 -0.0932,-0.09326 z m 0.5596,0 c -0.0511,0 -0.0932,0.04205 -0.0932,0.09326 v 1.305831 c 0,0.0513 0.0434,0.0933 0.0932,0.0933 0.0511,0 0.0932,-0.0421 0.0932,-0.0933 v -1.305831 c 0,-0.05129 -0.0434,-0.09326 -0.0932,-0.09326 z m 0.55966,0 c -0.0511,0 -0.0932,0.04205 -0.0932,0.09326 v 1.305831 c 0,0.0513 0.0434,0.0933 0.0932,0.0933 0.0511,0 0.0932,-0.0421 0.0932,-0.0933 v -1.305831 c 0,-0.05129 -0.0434,-0.09326 -0.0932,-0.09326 z"
       id="path5414-5"
       style="stroke-width:0.264583" /><path
       d="m 155.45412,102.43208 c 0.0304,-0.0635 0.0962,-0.10318 0.16692,-0.10318 h 0.70189 c 0.0708,0 0.13528,0.0395 0.16694,0.10318 l 0.0434,0.0834 h 0.55965 c 0.10322,0 0.18643,0.0834 0.18643,0.18657 0,0.10318 -0.0832,0.18656 -0.18643,0.18656 h -2.23856 c -0.10322,0 -0.18644,-0.0834 -0.18644,-0.18656 0,-0.10319 0.0832,-0.18657 0.18644,-0.18657 h 0.55964 z m -0.60163,0.64301 h 2.23858 v 1.86548 c 0,0.20577 -0.16736,0.37309 -0.37331,0.37309 h -1.4924 c -0.20594,0 -0.3733,-0.16732 -0.3733,-0.37309 z m 0.55966,0.37309 c -0.0511,0 -0.0932,0.0421 -0.0932,0.0933 v 1.30583 c 0,0.0513 0.0434,0.0933 0.0932,0.0933 0.0511,0 0.0932,-0.042 0.0932,-0.0933 v -1.30583 c 0,-0.0513 -0.0434,-0.0933 -0.0932,-0.0933 z m 0.5596,0 c -0.0511,0 -0.0932,0.0421 -0.0932,0.0933 v 1.30583 c 0,0.0513 0.0434,0.0933 0.0932,0.0933 0.0511,0 0.0932,-0.042 0.0932,-0.0933 v -1.30583 c 0,-0.0513 -0.0434,-0.0933 -0.0932,-0.0933 z m 0.55966,0 c -0.0511,0 -0.0932,0.0421 -0.0932,0.0933 v 1.30583 c 0,0.0513 0.0434,0.0933 0.0932,0.0933 0.0511,0 0.0932,-0.042 0.0932,-0.0933 v -1.30583 c 0,-0.0513 -0.0434,-0.0933 -0.0932,-0.0933 z"
       id="path5414-0"
       style="stroke-width:0.264583" /><path
       d="m 153.04998,107.3955 0.0625,-0.0626 -0.18769,-0.18769 -0.34383,-0.34384 -0.18771,-0.1877 -0.0626,0.0626 -0.12512,0.12514 -1.10294,1.10293 c -0.0576,0.0576 -0.0997,0.129 -0.12291,0.20707 l -0.196,0.66663 c -0.0139,0.0465 -9e-4,0.0969 0.0338,0.13123 0.0349,0.0343 0.0848,0.0471 0.13122,0.0338 l 0.66607,-0.19601 c 0.0781,-0.0233 0.1495,-0.0653 0.20708,-0.12291 l 1.10294,-1.10294 z m -1.38586,0.9324 -0.0504,0.12569 c -0.0222,0.0172 -0.047,0.0299 -0.0736,0.0382 l -0.43297,0.12734 0.12734,-0.43242 c 0.008,-0.0271 0.0211,-0.052 0.0382,-0.0736 l 0.12568,-0.0504 v 0.17718 c 0,0.0487 0.0399,0.0886 0.0886,0.0886 h 0.17717 z m 1.12231,-2.10786 -0.0797,0.0803 -0.12512,0.12513 -0.0631,0.0626 0.1877,0.1877 0.34384,0.34384 0.18769,0.1877 0.0626,-0.0626 0.12513,-0.12514 0.0803,-0.0803 c 0.13842,-0.13842 0.13842,-0.36266 0,-0.50108 l -0.2176,-0.21815 c -0.13842,-0.13842 -0.36266,-0.13842 -0.50108,0 z m -0.26245,0.93018 -0.7973,0.7973 c -0.0343,0.0343 -0.0908,0.0343 -0.12513,0 -0.0343,-0.0343 -0.0343,-0.0908 0,-0.12513 l 0.7973,-0.7973 c 0.0343,-0.0343 0.0908,-0.0343 0.12513,0 0.0343,0.0343 0.0343,0.0908 0,0.12513 z"
       id="path3422-3-61"
       style="stroke-width:0.264583" /><path
       d="m 155.45412,106.21941 c 0.0304,-0.0635 0.0962,-0.10318 0.16692,-0.10318 h 0.70189 c 0.0708,0 0.13528,0.0395 0.16694,0.10318 l 0.0434,0.0834 h 0.55965 c 0.10322,0 0.18643,0.0834 0.18643,0.18657 0,0.10318 -0.0832,0.18656 -0.18643,0.18656 h -2.23856 c -0.10322,0 -0.18644,-0.0834 -0.18644,-0.18656 0,-0.10319 0.0832,-0.18657 0.18644,-0.18657 h 0.55964 z m -0.60163,0.64301 h 2.23858 v 1.86548 c 0,0.20577 -0.16736,0.37309 -0.37331,0.37309 h -1.4924 c -0.20594,0 -0.3733,-0.16732 -0.3733,-0.37309 z m 0.55966,0.37309 c -0.0511,0 -0.0932,0.0421 -0.0932,0.0933 v 1.30583 c 0,0.0513 0.0434,0.0933 0.0932,0.0933 0.0511,0 0.0932,-0.042 0.0932,-0.0933 v -1.30583 c 0,-0.0513 -0.0434,-0.0933 -0.0932,-0.0933 z m 0.5596,0 c -0.0511,0 -0.0932,0.0421 -0.0932,0.0933 v 1.30583 c 0,0.0513 0.0434,0.0933 0.0932,0.0933 0.0511,0 0.0932,-0.042 0.0932,-0.0933 v -1.30583 c 0,-0.0513 -0.0434,-0.0933 -0.0932,-0.0933 z m 0.55966,0 c -0.0511,0 -0.0932,0.0421 -0.0932,0.0933 v 1.30583 c 0,0.0513 0.0434,0.0933 0.0932,0.0933 0.0511,0 0.0932,-0.042 0.0932,-0.0933 v -1.30583 c 0,-0.0513 -0.0434,-0.0933 -0.0932,-0.0933 z"
       id="path5414-0-0"
       style="stroke-width:0.264583" /><path
       d="m 152.82144,112.8456 c 0,-0.15069 -0.12175,-0.27244 -0.27244,-0.27244 -0.15068,0 -0.27243,0.12175 -0.27243,0.27244 v 1.22594 h -1.22594 c -0.15069,0 -0.27243,0.12174 -0.27243,0.27243 0,0.15069 0.12174,0.27243 0.27243,0.27243 h 1.22594 v 1.22594 c 0,0.15069 0.12175,0.27243 0.27243,0.27243 0.15069,0 0.27244,-0.12174 0.27244,-0.27243 v -1.22594 h 1.22594 c 0.15069,0 0.27243,-0.12174 0.27243,-0.27243 0,-0.15069 -0.12174,-0.27243 -0.27243,-0.27243 h -1.22594 z"
       id="path5572"
       style="stroke-width:0.264583" /><text
       xml:space="preserve"
       style="font-size:4.42718px;line-height:1;font-family:FreeSans;-inkscape-font-specification:FreeSans;letter-spacing:0px;word-spacing:0px;stroke-width:0.264583"
       x="155.43782"
       y="115.90675"
       id="text5583"><tspan
         sodipodi:role="line"
         id="tspan5581"
         style="stroke-width:0.264583"
         x="155.43782"
         y="115.90675">Add</tspan></text><path
       d="m 159.96391,169.94705 0.0384,-0.0385 -0.1153,-0.11531 -0.21122,-0.21123 -0.11531,-0.1153 -0.0385,0.0385 -0.0768,0.0769 -0.67755,0.67754 c -0.0354,0.0354 -0.0613,0.0793 -0.0755,0.12722 l -0.12041,0.40951 c -0.008,0.0285 -5.5e-4,0.0595 0.0208,0.0806 0.0215,0.0211 0.0521,0.029 0.0806,0.0208 l 0.40917,-0.12041 c 0.048,-0.0143 0.0919,-0.0401 0.12721,-0.0755 l 0.67755,-0.67754 z m -0.85135,0.57279 -0.031,0.0772 c -0.0136,0.0105 -0.0289,0.0184 -0.0452,0.0234 l -0.26598,0.0783 0.0783,-0.26564 c 0.005,-0.0167 0.013,-0.032 0.0234,-0.0452 l 0.0772,-0.031 v 0.10885 c 0,0.0299 0.0246,0.0544 0.0544,0.0544 h 0.10883 z m 0.68945,-1.2949 -0.049,0.0493 -0.0768,0.0768 -0.0388,0.0385 0.1153,0.1153 0.21123,0.21123 0.1153,0.1153 0.0385,-0.0385 0.0768,-0.0768 0.0493,-0.0493 c 0.085,-0.085 0.085,-0.22279 0,-0.30782 l -0.13367,-0.13402 c -0.085,-0.085 -0.22279,-0.085 -0.30783,0 z m -0.16123,0.57143 -0.48979,0.48979 c -0.0211,0.0211 -0.0558,0.0211 -0.0768,0 -0.0211,-0.0211 -0.0211,-0.0558 0,-0.0769 l 0.48979,-0.48979 c 0.0211,-0.0211 0.0557,-0.0211 0.0768,0 0.0211,0.0211 0.0211,0.0557 0,0.0768 z"
       id="path3422-4"
       style="stroke-width:0.264583" /><path
       d="m 159.96391,185.927 0.0384,-0.0385 -0.1153,-0.1153 -0.21122,-0.21122 -0.11531,-0.11531 -0.0385,0.0385 -0.0768,0.0768 -0.67755,0.67755 c -0.0354,0.0354 -0.0613,0.0793 -0.0755,0.12721 l -0.12041,0.40952 c -0.008,0.0285 -5.5e-4,0.0595 0.0208,0.0806 0.0215,0.0211 0.0521,0.0289 0.0806,0.0208 l 0.40917,-0.1204 c 0.048,-0.0143 0.0919,-0.0401 0.12721,-0.0755 l 0.67755,-0.67755 z m -0.85135,0.57278 -0.031,0.0772 c -0.0136,0.0105 -0.0289,0.0183 -0.0452,0.0234 l -0.26598,0.0783 0.0783,-0.26564 c 0.005,-0.0167 0.013,-0.032 0.0234,-0.0452 l 0.0772,-0.031 v 0.10883 c 0,0.0299 0.0246,0.0544 0.0544,0.0544 h 0.10883 z m 0.68945,-1.29489 -0.049,0.0493 -0.0768,0.0769 -0.0388,0.0385 0.1153,0.1153 0.21123,0.21122 0.1153,0.11531 0.0385,-0.0385 0.0768,-0.0768 0.0493,-0.0493 c 0.085,-0.085 0.085,-0.22279 0,-0.30783 l -0.13367,-0.13401 c -0.085,-0.085 -0.22279,-0.085 -0.30783,0 z m -0.16123,0.57142 -0.48979,0.4898 c -0.0211,0.0211 -0.0558,0.0211 -0.0768,0 -0.0211,-0.0211 -0.0211,-0.0558 0,-0.0768 l 0.48979,-0.4898 c 0.0211,-0.0211 0.0557,-0.0211 0.0768,0 0.0211,0.0211 0.0211,0.0558 0,0.0768 z"
       id="path3422-3-9-4"
       style="stroke-width:0.264583" /><path
       d="m 161.4408,173.79026 c 0.0187,-0.039 0.0591,-0.0634 0.10255,-0.0634 h 0.43118 c 0.0435,0 0.0831,0.0242 0.10255,0.0634 l 0.0267,0.0512 h 0.3438 c 0.0634,0 0.11453,0.0513 0.11453,0.11461 0,0.0634 -0.0512,0.1146 -0.11453,0.1146 h -1.37518 c -0.0634,0 -0.11453,-0.0513 -0.11453,-0.1146 0,-0.0634 0.0512,-0.11461 0.11453,-0.11461 h 0.3438 z m -0.36958,0.39501 h 1.37518 v 1.14598 c 0,0.12642 -0.10281,0.2292 -0.22932,0.2292 h -0.91681 c -0.12651,0 -0.22932,-0.10278 -0.22932,-0.2292 z m 0.3438,0.22919 c -0.0314,0 -0.0573,0.0258 -0.0573,0.0573 v 0.8022 c 0,0.0315 0.0267,0.0573 0.0573,0.0573 0.0314,0 0.0573,-0.0258 0.0573,-0.0573 v -0.8022 c 0,-0.0315 -0.0267,-0.0573 -0.0573,-0.0573 z m 0.34377,0 c -0.0314,0 -0.0573,0.0258 -0.0573,0.0573 v 0.8022 c 0,0.0315 0.0267,0.0573 0.0573,0.0573 0.0314,0 0.0573,-0.0258 0.0573,-0.0573 v -0.8022 c 0,-0.0315 -0.0267,-0.0573 -0.0573,-0.0573 z m 0.34381,0 c -0.0314,0 -0.0573,0.0258 -0.0573,0.0573 v 0.8022 c 0,0.0315 0.0267,0.0573 0.0573,0.0573 0.0314,0 0.0573,-0.0258 0.0573,-0.0573 v -0.8022 c 0,-0.0315 -0.0267,-0.0573 -0.0573,-0.0573 z"
       id="path5414-2-3"
       style="stroke-width:0.264583" /><path
       d="m 159.96391,183.64414 0.0384,-0.0385 -0.1153,-0.11532 -0.21122,-0.21121 -0.11531,-0.1153 -0.0385,0.0385 -0.0768,0.0768 -0.67755,0.67755 c -0.0354,0.0354 -0.0613,0.0793 -0.0755,0.1272 l -0.12041,0.40953 c -0.008,0.0285 -5.5e-4,0.0595 0.0208,0.0806 0.0215,0.0211 0.0521,0.0289 0.0806,0.0208 l 0.40917,-0.12041 c 0.048,-0.0143 0.0919,-0.0401 0.12721,-0.0755 l 0.67755,-0.67754 z m -0.85135,0.57278 -0.031,0.0772 c -0.0136,0.0105 -0.0289,0.0184 -0.0452,0.0234 l -0.26598,0.0783 0.0783,-0.26566 c 0.005,-0.0167 0.013,-0.0319 0.0234,-0.0452 l 0.0772,-0.031 v 0.10885 c 0,0.0299 0.0246,0.0544 0.0544,0.0544 h 0.10883 z m 0.68945,-1.29488 -0.049,0.0493 -0.0768,0.0768 -0.0388,0.0385 0.1153,0.11531 0.21123,0.21122 0.1153,0.11531 0.0385,-0.0385 0.0768,-0.0768 0.0493,-0.0493 c 0.085,-0.085 0.085,-0.22278 0,-0.30782 l -0.13367,-0.13401 c -0.085,-0.085 -0.22279,-0.085 -0.30783,0 z m -0.16123,0.57142 -0.48979,0.48979 c -0.0211,0.0211 -0.0558,0.0211 -0.0768,0 -0.0211,-0.0211 -0.0211,-0.0557 0,-0.0768 l 0.48979,-0.48979 c 0.0211,-0.0211 0.0557,-0.0211 0.0768,0 0.0211,0.0211 0.0211,0.0558 0,0.0768 z"
       id="path3422-3-2-0"
       style="stroke-width:0.264583" /><path
       d="m 161.44081,169.22457 c 0.0187,-0.039 0.0591,-0.0634 0.10255,-0.0634 h 0.43118 c 0.0435,0 0.0831,0.0242 0.10254,0.0634 l 0.0267,0.0513 h 0.3438 c 0.0634,0 0.11452,0.0513 0.11452,0.1146 0,0.0634 -0.0511,0.11462 -0.11452,0.11462 h -1.37518 c -0.0634,0 -0.11454,-0.0513 -0.11454,-0.11462 0,-0.0634 0.0512,-0.1146 0.11454,-0.1146 h 0.3438 z m -0.36958,0.39499 h 1.37518 v 1.146 c 0,0.12641 -0.10281,0.22919 -0.22933,0.22919 h -0.9168 c -0.12651,0 -0.22932,-0.10278 -0.22932,-0.22919 z m 0.3438,0.2292 c -0.0314,0 -0.0573,0.0258 -0.0573,0.0573 v 0.8022 c 0,0.0315 0.0267,0.0573 0.0573,0.0573 0.0314,0 0.0573,-0.0258 0.0573,-0.0573 v -0.8022 c 0,-0.0315 -0.0267,-0.0573 -0.0573,-0.0573 z m 0.34377,0 c -0.0314,0 -0.0573,0.0258 -0.0573,0.0573 v 0.8022 c 0,0.0315 0.0267,0.0573 0.0573,0.0573 0.0314,0 0.0573,-0.0258 0.0573,-0.0573 v -0.8022 c 0,-0.0315 -0.0267,-0.0573 -0.0573,-0.0573 z m 0.34381,0 c -0.0314,0 -0.0573,0.0258 -0.0573,0.0573 v 0.8022 c 0,0.0315 0.0267,0.0573 0.0573,0.0573 0.0314,0 0.0573,-0.0258 0.0573,-0.0573 v -0.8022 c 0,-0.0315 -0.0267,-0.0573 -0.0573,-0.0573 z"
       id="path5414-3-6"
       style="stroke-width:0.264583" /><path
       d="m 159.96391,179.07844 0.0384,-0.0385 -0.1153,-0.1153 -0.21122,-0.21121 -0.11531,-0.11532 -0.0385,0.0385 -0.0768,0.0768 -0.67755,0.67756 c -0.0354,0.0354 -0.0613,0.0793 -0.0755,0.1272 l -0.12041,0.40953 c -0.008,0.0285 -5.5e-4,0.0595 0.0208,0.0806 0.0215,0.0211 0.0521,0.0289 0.0806,0.0208 l 0.40917,-0.1204 c 0.048,-0.0143 0.0919,-0.0401 0.12721,-0.0755 l 0.67755,-0.67755 z m -0.85135,0.57279 -0.031,0.0772 c -0.0136,0.0105 -0.0289,0.0184 -0.0452,0.0234 l -0.26598,0.0783 0.0783,-0.26564 c 0.005,-0.0167 0.013,-0.032 0.0234,-0.0452 l 0.0772,-0.031 v 0.10885 c 0,0.0299 0.0246,0.0544 0.0544,0.0544 h 0.10883 z m 0.68945,-1.29489 -0.049,0.0493 -0.0768,0.0768 -0.0388,0.0385 0.1153,0.1153 0.21123,0.21123 0.1153,0.1153 0.0385,-0.0385 0.0768,-0.0768 0.0493,-0.0493 c 0.085,-0.085 0.085,-0.22279 0,-0.30783 l -0.13367,-0.13401 c -0.085,-0.085 -0.22279,-0.085 -0.30783,0 z m -0.16123,0.57142 -0.48979,0.4898 c -0.0211,0.0211 -0.0558,0.0211 -0.0768,0 -0.0211,-0.0211 -0.0211,-0.0557 0,-0.0769 l 0.48979,-0.48979 c 0.0211,-0.0211 0.0557,-0.0211 0.0768,0 0.0211,0.0211 0.0211,0.0558 0,0.0768 z"
       id="path3422-3-97-8"
       style="stroke-width:0.264583" /><path
       d="m 161.4408,178.35595 c 0.0187,-0.039 0.0591,-0.0634 0.10255,-0.0634 h 0.43118 c 0.0435,0 0.0831,0.0242 0.10255,0.0634 l 0.0267,0.0513 h 0.3438 c 0.0634,0 0.11453,0.0512 0.11453,0.11461 0,0.0634 -0.0512,0.1146 -0.11453,0.1146 h -1.37518 c -0.0634,0 -0.11453,-0.0513 -0.11453,-0.1146 0,-0.0634 0.0512,-0.11461 0.11453,-0.11461 h 0.3438 z m -0.36958,0.39502 h 1.37518 v 1.14598 c 0,0.12642 -0.10281,0.2292 -0.22932,0.2292 h -0.91681 c -0.12651,0 -0.22932,-0.10278 -0.22932,-0.2292 z m 0.3438,0.22919 c -0.0314,0 -0.0573,0.0259 -0.0573,0.0573 v 0.80219 c 0,0.0315 0.0267,0.0573 0.0573,0.0573 0.0314,0 0.0573,-0.0259 0.0573,-0.0573 v -0.80219 c 0,-0.0315 -0.0267,-0.0573 -0.0573,-0.0573 z m 0.34377,0 c -0.0314,0 -0.0573,0.0259 -0.0573,0.0573 v 0.80219 c 0,0.0315 0.0267,0.0573 0.0573,0.0573 0.0314,0 0.0573,-0.0259 0.0573,-0.0573 v -0.80219 c 0,-0.0315 -0.0267,-0.0573 -0.0573,-0.0573 z m 0.34381,0 c -0.0314,0 -0.0573,0.0259 -0.0573,0.0573 v 0.80219 c 0,0.0315 0.0267,0.0573 0.0573,0.0573 0.0314,0 0.0573,-0.0259 0.0573,-0.0573 v -0.80219 c 0,-0.0315 -0.0267,-0.0573 -0.0573,-0.0573 z"
       id="path5414-1-8"
       style="stroke-width:0.264583" /><path
       d="m 159.96391,174.51275 0.0384,-0.0385 -0.1153,-0.1153 -0.21122,-0.21123 -0.11531,-0.1153 -0.0385,0.0385 -0.0768,0.0768 -0.67755,0.67755 c -0.0354,0.0354 -0.0613,0.0793 -0.0755,0.12721 l -0.12041,0.40952 c -0.008,0.0285 -5.5e-4,0.0595 0.0208,0.0806 0.0215,0.0211 0.0521,0.029 0.0806,0.0208 l 0.40917,-0.1204 c 0.048,-0.0143 0.0919,-0.0401 0.12721,-0.0755 l 0.67755,-0.67755 z m -0.85135,0.57278 -0.031,0.0772 c -0.0136,0.0105 -0.0289,0.0183 -0.0452,0.0234 l -0.26598,0.0783 0.0783,-0.26565 c 0.005,-0.0167 0.013,-0.032 0.0234,-0.0452 l 0.0772,-0.031 v 0.10884 c 0,0.0299 0.0246,0.0544 0.0544,0.0544 h 0.10883 z m 0.68945,-1.29488 -0.049,0.0493 -0.0768,0.0768 -0.0388,0.0385 0.1153,0.11529 0.21123,0.21122 0.1153,0.11532 0.0385,-0.0385 0.0768,-0.0769 0.0493,-0.0493 c 0.085,-0.085 0.085,-0.22278 0,-0.30781 l -0.13367,-0.13402 c -0.085,-0.085 -0.22279,-0.085 -0.30783,0 z m -0.16123,0.57142 -0.48979,0.48979 c -0.0211,0.0211 -0.0558,0.0211 -0.0768,0 -0.0211,-0.0211 -0.0211,-0.0558 0,-0.0768 l 0.48979,-0.4898 c 0.0211,-0.0211 0.0557,-0.0211 0.0768,0 0.0211,0.0211 0.0211,0.0558 0,0.0769 z"
       id="path3422-3-6-1"
       style="stroke-width:0.264583" /><path
       d="m 161.4408,182.92165 c 0.0187,-0.039 0.0591,-0.0634 0.10255,-0.0634 h 0.43118 c 0.0435,0 0.0831,0.0242 0.10255,0.0634 l 0.0267,0.0513 h 0.3438 c 0.0634,0 0.11453,0.0513 0.11453,0.11461 0,0.0634 -0.0512,0.11461 -0.11453,0.11461 h -1.37518 c -0.0634,0 -0.11453,-0.0513 -0.11453,-0.11461 0,-0.0634 0.0512,-0.11461 0.11453,-0.11461 h 0.3438 z m -0.36958,0.39501 h 1.37518 v 1.146 c 0,0.1264 -0.10281,0.22919 -0.22932,0.22919 h -0.91681 c -0.12651,0 -0.22932,-0.10279 -0.22932,-0.22919 z m 0.3438,0.22919 c -0.0314,0 -0.0573,0.0259 -0.0573,0.0573 v 0.80219 c 0,0.0315 0.0267,0.0573 0.0573,0.0573 0.0314,0 0.0573,-0.0259 0.0573,-0.0573 v -0.80219 c 0,-0.0315 -0.0267,-0.0573 -0.0573,-0.0573 z m 0.34377,0 c -0.0314,0 -0.0573,0.0259 -0.0573,0.0573 v 0.80219 c 0,0.0315 0.0267,0.0573 0.0573,0.0573 0.0314,0 0.0573,-0.0259 0.0573,-0.0573 v -0.80219 c 0,-0.0315 -0.0267,-0.0573 -0.0573,-0.0573 z m 0.34381,0 c -0.0314,0 -0.0573,0.0259 -0.0573,0.0573 v 0.80219 c 0,0.0315 0.0267,0.0573 0.0573,0.0573 0.0314,0 0.0573,-0.0259 0.0573,-0.0573 v -0.80219 c 0,-0.0315 -0.0267,-0.0573 -0.0573,-0.0573 z"
       id="path5414-7-4"
       style="stroke-width:0.264583" /><path
       d="m 161.4408,185.2045 c 0.0187,-0.039 0.0591,-0.0634 0.10255,-0.0634 h 0.43118 c 0.0435,0 0.0831,0.0242 0.10255,0.0634 l 0.0267,0.0512 h 0.3438 c 0.0634,0 0.11453,0.0513 0.11453,0.11461 0,0.0634 -0.0512,0.1146 -0.11453,0.1146 h -1.37518 c -0.0634,0 -0.11453,-0.0512 -0.11453,-0.1146 0,-0.0634 0.0512,-0.11461 0.11453,-0.11461 h 0.3438 z m -0.36958,0.39502 h 1.37518 v 1.14598 c 0,0.12641 -0.10281,0.22919 -0.22932,0.22919 h -0.91681 c -0.12651,0 -0.22932,-0.10278 -0.22932,-0.22919 z m 0.3438,0.22918 c -0.0314,0 -0.0573,0.0258 -0.0573,0.0573 v 0.80219 c 0,0.0315 0.0267,0.0573 0.0573,0.0573 0.0314,0 0.0573,-0.0258 0.0573,-0.0573 V 185.886 c 0,-0.0315 -0.0267,-0.0573 -0.0573,-0.0573 z m 0.34377,0 c -0.0314,0 -0.0573,0.0258 -0.0573,0.0573 v 0.80219 c 0,0.0315 0.0267,0.0573 0.0573,0.0573 0.0314,0 0.0573,-0.0258 0.0573,-0.0573 V 185.886 c 0,-0.0315 -0.0267,-0.0573 -0.0573,-0.0573 z m 0.34381,0 c -0.0314,0 -0.0573,0.0258 -0.0573,0.0573 v 0.80219 c 0,0.0315 0.0267,0.0573 0.0573,0.0573 0.0314,0 0.0573,-0.0258 0.0573,-0.0573 V 185.886 c 0,-0.0315 -0.0267,-0.0573 -0.0573,-0.0573 z"
       id="path5414-8-2"
       style="stroke-width:0.264583" /><path
       d="m 159.82351,189.12876 c 0,-0.0926 -0.0748,-0.16736 -0.16736,-0.16736 -0.0926,0 -0.16736,0.0748 -0.16736,0.16736 v 0.75311 h -0.7531 c -0.0926,0 -0.16737,0.0748 -0.16737,0.16736 0,0.0926 0.0748,0.16736 0.16737,0.16736 h 0.7531 v 0.75311 c 0,0.0926 0.0748,0.16736 0.16736,0.16736 0.0926,0 0.16736,-0.0748 0.16736,-0.16736 v -0.75311 h 0.75312 c 0.0926,0 0.16735,-0.0748 0.16735,-0.16736 0,-0.0926 -0.0748,-0.16736 -0.16735,-0.16736 h -0.75312 z"
       id="path5572-6"
       style="stroke-width:0.264583" /><text
       xml:space="preserve"
       style="font-size:2.71967px;line-height:1;font-family:FreeSans;-inkscape-font-specification:FreeSans;letter-spacing:0px;word-spacing:0px;stroke-width:0.264583"
       x="161.43089"
       y="191.00916"
       id="text5583-6"><tspan
         sodipodi:role="line"
         id="tspan5581-4"
         style="stroke-width:0.264583"
         x="161.43089"
         y="191.00916">Add</tspan></text><text
       xml:space="preserve"
       style="font-size:2.71967px;line-height:1;font-family:FreeSans;-inkscape-font-specification:FreeSans;letter-spacing:0px;word-spacing:0px;stroke-width:0.264583"
       x="54.314373"
       y="163.14632"
       id="text5583-6-0"><tspan
         sodipodi:role="line"
         id="tspan5581-4-4"
         style="stroke-width:0.264583"
         x="54.314373"
         y="163.14632">Settings</tspan></text><rect
       style="fill:#cccccc;stroke:#333333;stroke-width:0.499998;stroke-linecap:round;stroke-miterlimit:11.6;stroke-dasharray:none;paint-order:fill markers stroke;stop-color:#000000"
       id="rect5659"
       width="121.18126"
       height="6.6799769"
       x="47.536812"
       y="151.49757" /><text
       xml:space="preserve"
       style="font-size:3.88056px;line-height:1;font-family:FreeSans;-inkscape-font-specification:FreeSans;letter-spacing:0px;word-spacing:0px;stroke-width:0.264583"
       x="49.938316"
       y="149.37807"
       id="text1203-6"><tspan
         sodipodi:role="line"
         id="tspan1201-1"
         style="font-size:3.88056px;stroke-width:0.264583"
         x="49.938316"
         y="149.37807">DNS management</tspan></text><g
       id="rect1199-7-5-8"
       transform="matrix(1.1108522,0,0,1,30.141712,101.29163)"
       style="stroke-width:0.948794"><path
         style="color:#000000;fill:#ffffff;stroke-width:0.474397;stroke-linecap:round;stroke-miterlimit:11.6;-inkscape-stroke:none;paint-order:fill markers stroke"
         d="M 48.850819,43.647854 H 84.38171 v 6.538337 H 48.850819 Z"
         id="path1259-3-7" /><path
         style="color:#000000;fill:#333333;stroke-width:0.948794;stroke-linecap:round;stroke-miterlimit:11.6;-inkscape-stroke:none;paint-order:fill markers stroke"
         d="m 48.601562,43.398437 v 0.25 6.78711 h 36.029297 v -7.03711 z m 0.5,0.5 h 35.029297 v 6.03711 H 49.101562 Z"
         id="path1261-5-9" /></g><rect
       style="fill:#ffffff;stroke:none;stroke-width:0.499999;stroke-linecap:round;stroke-miterlimit:11.6;stroke-dasharray:none;paint-order:fill markers stroke;stop-color:#000000"
       id="rect1199-6-2"
       width="38.912369"
       height="7.2202797"
       x="84.686264"
       y="145.19008" /><rect
       style="fill:#2a2aff;stroke:none;stroke-width:0.499998;stroke-linecap:round;stroke-miterlimit:11.6;stroke-dasharray:none;paint-order:fill markers stroke;stop-color:#000000"
       id="rect1199-6-2-3"
       width="8.2597809"
       height="5.6287584"
       x="48.065979"
       y="152.01962" /><text
       xml:space="preserve"
       style="font-size:3.88056px;line-height:1;font-family:FreeSans;-inkscape-font-specification:FreeSans;letter-spacing:0px;word-spacing:0px;stroke-width:0.264583"
       x="85.467606"
       y="149.37807"
       id="text1203-2-0"><tspan
         sodipodi:role="line"
         id="tspan1201-9-2"
         style="font-size:3.88056px;stroke-width:0.264583"
         x="85.467606"
         y="149.37807">Identity management</tspan></text><text
       xml:space="preserve"
       style="font-size:3.03753px;line-height:1;font-family:FreeSans;-inkscape-font-specification:FreeSans;letter-spacing:0px;word-spacing:0px;stroke-width:0.264583"
       x="49.217705"
       y="155.72072"
       id="text5712"><tspan
         sodipodi:role="line"
         id="tspan5710"
         style="stroke-width:0.264583"
         x="49.217705"
         y="155.72072"><tspan
   style="font-weight:bold;fill:#ffffff"
   id="tspan5790">TLS</tspan> | IPsec | SSH | OpenPGP | S/MIME</tspan></text><path
       d="m 53.186853,161.74095 c 0.02343,0.0637 0.0037,0.13474 -0.04686,0.18014 l -0.317067,0.2885 c 0.0081,0.0608 0.01245,0.12302 0.01245,0.186 0,0.063 -0.0044,0.12521 -0.01245,0.18599 l 0.317067,0.28851 c 0.05053,0.0454 0.0703,0.11643 0.04686,0.18014 -0.03222,0.0871 -0.07103,0.17061 -0.115696,0.25116 l -0.03442,0.0593 c -0.04833,0.0805 -0.102516,0.15671 -0.161829,0.22847 -0.0432,0.0527 -0.114964,0.0703 -0.179403,0.0498 l -0.407867,-0.12961 c -0.09812,0.0754 -0.206496,0.1384 -0.322193,0.18599 l -0.09153,0.41812 c -0.01465,0.0666 -0.0659,0.11936 -0.133271,0.13034 -0.101051,0.0168 -0.205032,0.0256 -0.311209,0.0256 -0.106177,0 -0.210158,-0.009 -0.311209,-0.0256 -0.06737,-0.011 -0.118626,-0.0637 -0.133271,-0.13034 l -0.09153,-0.41812 c -0.115696,-0.0476 -0.224071,-0.11057 -0.322193,-0.18599 l -0.407135,0.13034 c -0.06444,0.0205 -0.1362,0.002 -0.179403,-0.0498 -0.05931,-0.0718 -0.113499,-0.14792 -0.161828,-0.22847 l -0.03442,-0.0593 c -0.04467,-0.0805 -0.08348,-0.16402 -0.115696,-0.25116 -0.02343,-0.0637 -0.0037,-0.13474 0.04686,-0.18014 l 0.317067,-0.28851 c -0.0081,-0.0615 -0.01245,-0.12375 -0.01245,-0.18672 0,-0.063 0.0044,-0.12522 0.01245,-0.186 l -0.317067,-0.2885 c -0.05053,-0.0454 -0.0703,-0.11643 -0.04686,-0.18014 0.03222,-0.0871 0.07103,-0.17062 0.115696,-0.25116 l 0.03442,-0.0593 c 0.04833,-0.0806 0.102515,-0.1567 0.161828,-0.22846 0.0432,-0.0527 0.114965,-0.0703 0.179403,-0.0498 l 0.407867,0.1296 c 0.09812,-0.0754 0.206497,-0.13839 0.322193,-0.18599 l 0.09153,-0.41812 c 0.01465,-0.0666 0.0659,-0.11936 0.133271,-0.13034 0.101052,-0.0176 0.205032,-0.0264 0.311209,-0.0264 0.106178,0 0.210158,0.009 0.311209,0.0256 0.06737,0.011 0.118626,0.0637 0.133271,0.13034 l 0.09153,0.41812 c 0.115697,0.0476 0.224071,0.11057 0.322193,0.18599 l 0.407867,-0.12961 c 0.06444,-0.0205 0.1362,-0.002 0.179403,0.0498 0.05931,0.0718 0.1135,0.14791 0.161829,0.22846 l 0.03442,0.0593 c 0.04467,0.0805 0.08348,0.16403 0.115697,0.25117 z m -1.756684,1.24044 a 0.5858055,0.5858055 0 1 0 0,-1.17161 0.5858055,0.5858055 0 1 0 0,1.17161 z"
       id="path6450"
       style="stroke-width:0.264583" /></g></svg>
